<?xml version="1.0" encoding="utf-8"?>
<!-- Generator: Adobe Illustrator 26.2.1, SVG Export Plug-In . SVG Version: 6.00 Build 0)  -->
<svg version="1.1" id="Layer_1" xmlns="http://www.w3.org/2000/svg" xmlns:xlink="http://www.w3.org/1999/xlink" x="0px" y="0px"
	 viewBox="0 0 1310.1 1347.6" style="enable-background:new 0 0 1310.1 1347.6;" xml:space="preserve">
<style type="text/css">
	.st0{fill:#E8E8E8;}
	.st1{fill:#161616;}
	.st2{fill:#FFB643;}
	.st3{display:none;fill:#161616;}
	.st4{opacity:0.14;fill:#3F3F3F;enable-background:new    ;}
	.st5{opacity:0.15;fill:#3F3F3F;enable-background:new    ;}
	.st6{fill:#ED639E;}
	.st7{opacity:0.13;fill:#3F3F3F;enable-background:new    ;}
	.st8{opacity:0.19;fill:#3F3F3F;enable-background:new    ;}
	.st9{opacity:0.17;fill:#3F3F3F;enable-background:new    ;}
	.st10{fill:#FFFFFF;stroke:#000000;stroke-width:2;stroke-miterlimit:10;}
	.st11{fill:#FFFFFF;}
	.st12{opacity:0.12;fill:#3F3F3F;enable-background:new    ;}
	.st13{opacity:0.11;fill:#3F3F3F;enable-background:new    ;}
	.st14{fill:#5222D0;}
	.st15{opacity:0.25;fill:#6A67CE;enable-background:new    ;}
	.st16{opacity:0.15;fill:#6A67CE;enable-background:new    ;}
	.st17{fill:none;}
	.st18{font-family:'BradleyHandITCTT-Bold';}
	.st19{font-size:36.1176px;}
	.st20{font-size:23.4455px;}
	.st21{font-size:38.8425px;}
</style>
<g id="background">
	<path class="st0" d="M244.1,1036.1h370.7c1.9,0,1.9-3,0-3H244.1C242.2,1033.1,242.2,1036.1,244.1,1036.1L244.1,1036.1z"/>
	<path class="st0" d="M634.2,1036.1H1013c1.9,0,1.9-3,0-3H634.2C632.3,1033.1,632.3,1036.1,634.2,1036.1L634.2,1036.1z"/>
	<path class="st0" d="M705.5,1063.6H937c1.9,0,1.9-3,0-3H705.5C703.5,1060.6,703.5,1063.6,705.5,1063.6L705.5,1063.6z"/>
	<path class="st0" d="M467.5,1070.1h134.4c1.9,0,1.9-3,0-3H467.5C465.6,1067.1,465.6,1070.1,467.5,1070.1L467.5,1070.1z"/>
	<path class="st0" d="M1064.8,1034.5h106.8c1.9,0,1.9-3,0-3h-106.8C1062.9,1031.5,1062.9,1034.5,1064.8,1034.5L1064.8,1034.5
		L1064.8,1034.5z"/>
	<path class="st0" d="M286.2,845.4c12.8,22.3,15.5,49.2,7.5,73.6c-0.3,0.8,0.3,1.6,1,1.8c3,1,6.1,2.3,8.2,4.6c2.7,3,3.3,9-1.3,10.8
		c-0.9,0.4-1.7,1.7-0.7,2.5c7.8,6.1,8.7,16.3,9.3,25.5c0.6,9.1,1.5,18.1,3.7,26.9c4.3,17,12.7,32.8,26.8,43.5c1.5,1.2,3-1.4,1.5-2.6
		c-15.6-11.8-23.6-30.3-27-49.1c-2.7-14.6,0.9-36-12.3-46.3c-0.2,0.8-0.4,1.7-0.7,2.5c4.2-1.7,6.3-6,5.4-10.5
		c-1.2-5.9-7.1-9-12.4-10.7c0.3,0.6,0.7,1.2,1,1.8c8.3-25.2,5.4-53-7.8-75.9C287.8,842.2,285.2,843.7,286.2,845.4L286.2,845.4
		L286.2,845.4z"/>
	<path class="st0" d="M287.1,843c20.4,12.5,36.7,30.1,50.1,49.7c6.5,9.4,12.4,19.3,17.9,29.3c4.6,8.4,15.1,23.4,6.4,32.3
		c-0.8,0.8-0.4,2.2,0.7,2.5c6.8,1.8,9.6,9.5,12.1,15.4c2.6,6.2,4.7,12.6,6.3,19.1c3.4,13.5,4.8,27.4,4.2,41.3c-0.1,1.9,2.9,1.9,3,0
		c0.6-16-1.2-32-5.8-47.4c-2.1-7-4.6-13.9-7.8-20.4c-2.4-4.9-5.7-9.4-11.2-10.9c0.2,0.8,0.4,1.7,0.7,2.5c7.4-7.5,3.3-18.5-0.9-26.6
		c-6.1-11.9-12.8-23.5-20.2-34.6c-14.3-21.6-31.7-41.2-54-54.8C287,839.4,285.5,842,287.1,843L287.1,843L287.1,843z"/>
	<path class="st0" d="M288.5,843.9c45.6,52.9,74.6,119.2,82.4,188.6c0.2,1.9,3.2,1.9,3,0c-6.2-54.7-25.3-107.8-55.5-153.8
		c-8.5-12.9-17.8-25.2-27.9-36.9C289.3,840.3,287.2,842.5,288.5,843.9L288.5,843.9L288.5,843.9z"/>
	<path class="st0" d="M297.1,914.9c25.1,10.9,46.2,29.2,60.5,52.5c1,1.6,3.6,0.1,2.6-1.5c-14.5-23.7-36-42.5-61.6-53.6
		C296.9,911.6,295.4,914.1,297.1,914.9L297.1,914.9z"/>
	<path class="st0" d="M336.6,890.4c0.8,10.6,2,21,3.9,31.5c0.3,1.9,3.2,1.1,2.9-0.8c-1.8-10.2-3-20.4-3.8-30.7
		C339.4,888.5,336.4,888.5,336.6,890.4L336.6,890.4L336.6,890.4z"/>
	<path class="st0" d="M310.6,969.9c23.1,10.4,43.3,26.5,58.5,46.8c1.1,1.5,3.7,0,2.6-1.5c-15.5-20.7-35.9-37.2-59.6-47.9
		C310.4,966.6,308.9,969.1,310.6,969.9L310.6,969.9L310.6,969.9z"/>
	<path class="st0" d="M350.5,907.4c-0.3-24.6,3.6-49,11.4-72.3c-0.7,0.3-1.5,0.6-2.2,0.9c1.8,0.9,3.5,1.8,5.3,2.6
		c1,0.5,2.2-0.1,2.3-1.3c0.4-15.2,4.8-29.7,13-42.5c-0.9-0.1-1.8-0.2-2.7-0.4c6.8,19.4,13.6,38.7,20.4,58.1
		c3.3,9.4,6.6,18.7,9.9,28.1c2.5,7.1,12.8,27.4-0.3,29.6c-1.2,0.2-1.4,1.8-0.7,2.5c6.9,7.4,9.5,17.3,10.8,27.1
		c1.3,10.1,1.5,20.3,1.1,30.4c-0.9,21.2-5.3,42-12.9,61.8c-0.7,1.8,2.2,2.6,2.9,0.8c8.1-21.1,12.6-43.6,13.1-66.2
		c0.4-18.3,0.5-41.7-12.9-55.9c-0.2,0.8-0.4,1.7-0.7,2.5c7.7-1.3,9.6-9.5,8.2-16.2c-2.5-11.5-7.8-22.9-11.7-34
		c-8.1-23.1-16.3-46.2-24.4-69.4c-0.4-1.2-2-1.5-2.7-0.4c-8.5,13.2-13.1,28.3-13.4,44c0.8-0.4,1.5-0.9,2.3-1.3
		c-1.8-0.9-3.5-1.8-5.3-2.6c-0.9-0.5-1.9-0.1-2.2,0.9c-7.9,23.6-11.8,48.2-11.5,73.1C347.5,909.3,350.5,909.3,350.5,907.4
		L350.5,907.4L350.5,907.4z"/>
	<path class="st0" d="M374.7,797.5c15.7,77.9,5,158,17.9,236.2c0.3,1.9,3.2,1.1,2.9-0.8c-12.8-78.2-2.1-158.4-17.9-236.2
		C377.2,794.8,374.3,795.6,374.7,797.5L374.7,797.5z"/>
	<path class="st0" d="M352.1,861.2c5.9,28.6,19,54.8,32,80.8c0.9,1.7,3.5,0.2,2.6-1.5c-12.9-25.7-25.8-51.7-31.7-80
		C354.6,858.5,351.7,859.3,352.1,861.2L352.1,861.2L352.1,861.2z"/>
	<path class="st0" d="M402.3,861.6c-7.3,13.8-13.2,28.3-17.8,43.2c-0.6,1.8,2.3,2.6,2.9,0.8c4.5-14.7,10.4-28.9,17.5-42.5
		C405.8,861.4,403.2,859.9,402.3,861.6L402.3,861.6L402.3,861.6z"/>
	<path class="st0" d="M844.9,1032c2.9-25.1,5.8-50.2,8.7-75.3l-1.5,1.5c3-0.2,5.3,0.4,7.8,2.3c1,0.8,2.5,0.3,2.6-1.1
		c0.3-5.5,0.5-10.9,0.8-16.4c-0.6,0.5-1.3,1-1.9,1.4c7.3,1.3,11.2-5.5,13.9-11.1c4.1-8.6,9.3-16.1,15.3-23.4
		c10.9-13.2,23.3-26.1,27.4-43.3h-2.9c5.6,17.7,11.4,35.7,12.3,54.4c0.7,14.4-0.9,35.3-16.7,41.5c-0.9,0.4-1.4,1.3-0.9,2.2
		c8.7,16.2-14,27.2-23.9,35.2c-11.1,9-20.2,20.2-27,32.7c-0.9,1.7,1.7,3.2,2.6,1.5c8.7-15.9,20.8-28.4,35.6-38.7
		c10.2-7.1,22.5-18.7,15.3-32.2c-0.3,0.7-0.6,1.5-0.9,2.2c14.6-5.8,18.6-22.7,19-36.9c0.5-21.5-6.1-42.4-12.5-62.7
		c-0.4-1.4-2.5-1.5-2.9,0c-3.7,15.7-14.7,27.7-24.8,39.7c-4.7,5.6-9.3,11.3-13.1,17.5c-3.1,5.2-7.2,19.9-15.1,18.5
		c-1-0.2-1.8,0.4-1.9,1.4c-0.3,5.5-0.5,10.9-0.8,16.4c0.9-0.4,1.7-0.7,2.6-1.1c-3-2.4-6.1-3.4-10-3.2c-0.9,0.1-1.4,0.6-1.5,1.5
		c-2.9,25.1-5.8,50.2-8.7,75.3C841.7,1033.9,844.7,1033.9,844.9,1032L844.9,1032L844.9,1032z"/>
	<path class="st0" d="M915,870.6c-1.7,28.4-7,57.3-22.2,81.8c-7.4,12-17.2,22.5-25.1,34.2c-7.6,11.2-13.3,23.5-17.3,36.4
		c-0.6,1.8,2.3,2.6,2.9,0.8c4.4-14.1,10.9-27.3,19.5-39.3c8.4-11.7,18.1-22.4,25.2-35c13.4-24,18.3-51.7,19.9-78.9
		C918.1,868.7,915.1,868.7,915,870.6L915,870.6L915,870.6z"/>
	<path class="st0" d="M881.9,918.5c0.2,14,2.3,27.8,6.4,41.2c0.6,1.8,3.5,1.1,2.9-0.8c-4-13.1-6.1-26.6-6.3-40.4
		C884.8,916.6,881.8,916.5,881.9,918.5L881.9,918.5L881.9,918.5z"/>
	<path class="st0" d="M907.4,928.3c7.9-3.7,14.9-8.8,20.9-15.1c1.3-1.4-0.8-3.5-2.1-2.1c-5.9,6.1-12.6,11-20.3,14.6
		C904.1,926.5,905.7,929.1,907.4,928.3L907.4,928.3L907.4,928.3z"/>
	<path class="st0" d="M896.5,1032.8c-0.9-11-2.1-22-3.5-32.9c-0.2-1.9-3.3-1.9-3,0c1.4,10.9,2.6,21.9,3.5,32.9
		C893.6,1034.7,896.6,1034.7,896.5,1032.8L896.5,1032.8z"/>
	<path class="st0" d="M931.1,909.6c10.9-20.6,20.2-42.1,27.8-64.2H956c5.7,23.3,11.3,46.6,17,69.9c0.3-0.6,0.7-1.2,1-1.8
		c-4,1.2-8,2.4-12,3.6c-0.7,0.2-1.1,0.8-1.1,1.4c-0.2,2.4,1.1,3.8,2.9,5.2c4.2,3.5,5.3,6.3,5,11.8c-0.3,5-0.8,9.9-1.2,14.8
		c-0.3,3.8-0.1,13.6-6,13.3c-0.9,0-1.8,1-1.4,1.9c4.5,12.5-0.5,25.4-6.4,36.5c-5.8,10.9-12.9,21-21.1,30.3c-1.3,1.4,0.8,3.6,2.1,2.1
		c9.1-10.3,17-21.7,23.2-34c5.5-11,9.5-23.6,5.2-35.7c-0.5,0.6-1,1.3-1.4,1.9c9.4,0.5,8.8-14,9.3-20c0.4-5.5,1.6-11.5,0.7-17
		c-0.3-1.8-0.9-3.5-2-4.9c-1.5-1.9-5.8-3.6-5.6-6.2c-0.4,0.5-0.7,1-1.1,1.4c4-1.2,8-2.4,12-3.6c0.8-0.2,1.2-1,1-1.8
		c-5.7-23.3-11.3-46.6-17-69.9c-0.4-1.5-2.4-1.3-2.9,0c-7.5,21.9-16.6,43-27.5,63.5C927.6,909.8,930.2,911.3,931.1,909.6
		L931.1,909.6z"/>
	<path class="st0" d="M955,851.9c9.4,59.9-32.6,111.4-43.4,168c-0.4,1.9,2.5,2.7,2.9,0.8c10.9-57.3,52.9-108.9,43.4-169.6
		C957.6,849.2,954.7,850,955,851.9L955,851.9L955,851.9z"/>
	<path class="st0" d="M934.6,895c2.3,11.9,4.5,23.8,6.8,35.8c0.4,1.9,3.3,1.1,2.9-0.8c-2.3-11.9-4.5-23.8-6.8-35.8
		C937.1,892.3,934.3,893.1,934.6,895L934.6,895z"/>
	<path class="st0" d="M952.8,910.3c4.6-6.7,9.8-12.9,15.5-18.7c1.4-1.4-0.8-3.5-2.1-2.1c-5.9,5.9-11.2,12.4-16,19.3
		C949.1,910.4,951.7,911.9,952.8,910.3L952.8,910.3z"/>
	<path class="st0" d="M145.7,752.7c73.6-16.2,150.8-14.3,223.5,5.7c37.1,10.2,72.1,26.1,107.9,40.1c35.3,13.8,71.4,25.3,108.2,34.5
		c41.1,10.3,82.9,17.7,125.1,22.2c1.9,0.2,1.9-2.8,0-3c-76.4-8.2-151.8-26.1-223.7-53.3c-36.3-13.7-71.5-30.2-108.7-41.2
		c-35.3-10.4-71.9-16.5-108.7-18.3c-41.7-2.1-83.6,1.5-124.3,10.4C143.1,750.2,143.9,753.1,145.7,752.7L145.7,752.7L145.7,752.7z"/>
	<path class="st0" d="M545.7,797.2c78.8,19.4,160.7,11.3,239.4-4.5c81.1-16.3,160.4-41.2,242.2-54c46.4-7.3,93.6-10.4,140.5-5.7
		c1.9,0.2,1.9-2.8,0-3c-82-8.2-163.6,7.7-243,26.7c-80,19.2-159.6,41.8-242,47.7c-45.7,3.2-91.7,1-136.3-10
		C544.6,793.8,543.8,796.7,545.7,797.2L545.7,797.2L545.7,797.2z"/>
	<path class="st0" d="M307.6,668.2c47.4-9.5,94.4,5.9,139.9,17.5c46.1,11.8,93,17.2,140.5,12.5c47.2-4.7,92.8-18.1,139-28.3
		c47.7-10.6,96.2-17.9,144.9-21.7c54-4.3,108.3-4.3,162.4-0.2c1.9,0.1,1.9-2.9,0-3c-96-7.2-192.9-1.3-287.3,17.7
		c-47.5,9.6-94.1,23.8-142.2,30.6c-49.1,6.9-98.4,3.9-146.5-7.8c-49.5-12.1-100.1-30.4-151.6-20.1
		C304.9,665.6,305.7,668.5,307.6,668.2L307.6,668.2z"/>
	<path class="st0" d="M806.1,606.6c53.4,5.5,106.2-6.3,157.9-18.2c26.4-6.1,52.9-12.2,79.7-16.2c27.7-4.1,55.8-5.6,83.8-4.3
		c31.6,1.5,62.9,6.4,93.5,14.7c1.9,0.5,2.7-2.4,0.8-2.9c-53.5-14.5-109.6-18.8-164.6-12.3c-53.7,6.3-105.5,22.6-158.7,31.6
		c-30.5,5.2-61.4,7.7-92.3,4.5C804.2,603.4,804.2,606.4,806.1,606.6L806.1,606.6L806.1,606.6z"/>
	<path class="st0" d="M161.4,610.3c40.3,7,80-7.1,120.1-9.3c42.3-2.4,84.4,4.5,125.9,11.4c1.9,0.3,2.7-2.6,0.8-2.9
		c-40.6-6.7-81.6-13.4-122.9-11.7c-41,1.7-82,16.8-123.2,9.6C160.3,607.1,159.5,610,161.4,610.3L161.4,610.3L161.4,610.3z"/>
	<path class="st1" d="M348.2,1176.7h143.5c1.9,0,1.9-3,0-3H348.2C346.3,1173.7,346.3,1176.7,348.2,1176.7L348.2,1176.7z"/>
	<path class="st1" d="M459.5,1195.7h133.2c1.9,0,1.9-3,0-3H459.5C457.6,1192.7,457.6,1195.7,459.5,1195.7L459.5,1195.7L459.5,1195.7
		z"/>
	<path class="st1" d="M232.6,1172.3h-74.7c-1.9,0-1.9,3,0,3h74.7C234.5,1175.3,234.5,1172.3,232.6,1172.3L232.6,1172.3z"/>
	<path class="st1" d="M562,1121.1h234.2c1.9,0,1.9-3,0-3H562C560.1,1118.1,560,1121.1,562,1121.1L562,1121.1L562,1121.1z"/>
	<path class="st1" d="M936.8,1099.1h87.8c1.9,0,1.9-3,0-3h-87.8C934.8,1096.1,934.8,1099.1,936.8,1099.1L936.8,1099.1z"/>
	<path class="st1" d="M1089,1109.4h134.7c1.9,0,1.9-3,0-3H1089C1087.1,1106.4,1087.1,1109.4,1089,1109.4L1089,1109.4z"/>
</g>
<g id="coins">
	<path class="st2" d="M209.5,1082.9c-0.4,5.7-0.7,11.3-1.1,17c-2.5,0.7-4.9,1.5-7.4,2.2c-0.1,4.2-0.2,8.4-0.4,12.6h-11.5
		c0.7,5.8,1.5,11.6,2.2,17.4c6.5,0.1,13.1,0.2,19.6,0.4c0.7,4.7,1.5,9.4,2.2,14.1c-4.6,0-9.4-0.1-14.4-0.4
		c-5.9-0.3-11.4-0.8-16.6-1.5c-0.2,6.2-0.5,12.3-0.7,18.5c16.4-0.2,32.8-0.5,49.2-0.7c0.5,4.3,1,8.6,1.5,12.9
		c30.5,3.4,65.4,4.6,103.6,1.1c10.5-1,20.6-2.2,30.3-3.7V1158c-3.5,1.4-7.7,2.7-12.6,3.7c-8.2,1.6-15.3,1.6-20.7,1.1
		c0.6-3.9,1.2-7.9,1.8-11.8c0.8-2.6,1.6-5.8,1.8-9.6c0.2-2.5,0.1-4.7,0-6.7c-9.5,0.1-19,0.2-28.5,0.4c-0.2-6.5-0.5-13.1-0.7-19.6
		c8.8-0.7,17.5-1.5,26.3-2.2c0.2-3.5,0.5-6.9,0.7-10.4c-4.4-0.6-8.9-1.2-13.3-1.8c-0.2-6.7-0.5-13.3-0.7-20
		C283.3,1081.7,246.4,1082.3,209.5,1082.9z"/>
	<path class="st2" d="M1011.8,956.6c-0.1,4.1-0.2,8.2-0.3,12.2c9.1,0.6,18.2,1.2,27.3,1.7V982c-3.4,0.8-6.8,1.6-10.1,2.4
		c-0.2,4.4-0.5,8.9-0.7,13.3c-10.6,0.1-21.2,0.2-31.8,0.3c-0.3,4.4-0.7,8.9-1,13.3c12.5,0.2,25,0.5,37.4,0.7v16.1
		c-12.7,0.3-25.4,0.7-38.1,1c-0.2,5.1-0.5,10.3-0.7,15.4c4.1,0.3,8.2,0.7,12.2,1c0.1,4.5,0.2,9.1,0.3,13.6c-5.5,0.5-11,0.9-16.4,1.4
		c0.2,5.9,0.5,11.9,0.7,17.8c6.6-0.1,13.3-0.2,19.9-0.3v18.9c14.9,0.8,30.4,1.3,46.5,1.4c25.2,0.1,49.1-0.8,71.4-2.4
		c1.1-4.8,2.1-10.1,2.8-15.7c0.9-7.1,1.3-13.7,1.4-19.6c2.8-0.5,5.6-0.9,8.4-1.4c0.1-4.3,0.2-8.6,0.3-12.9c-7-0.1-14-0.2-21-0.3
		c0.3-5.7,0.7-11.4,1-17.1c10.6-0.3,21.2-0.7,31.8-1c0.1-5,0.2-10,0.3-15h-26.6c0.3-4.1,0.7-8.2,1-12.2c9.7-0.6,19.4-1.2,29-1.7
		c0.1-5,0.2-10,0.3-15h12.9c-0.2-4.5-0.5-9.1-0.7-13.6c-10.6,0.2-21.2,0.5-31.8,0.7c0.3-5.5,0.7-11,1-16.4
		c-12.9-3-27.9-5.4-44.8-6.3C1060.7,946.4,1032.4,951.2,1011.8,956.6L1011.8,956.6z"/>
	<path class="st1" d="M230.3,1162.6c0.1,4.2,0.3,8.5,0.4,12.7c0,0.9,0.7,1.4,1.5,1.5c44.1,3,88.3,2.7,132.3-1
		c0.6-0.1,1.3-0.4,1.4-1.1c1.3-5.5,1.6-10.8,1-16.4c-0.2-1.9-3.2-1.9-3,0c0.6,5.3,0.3,10.4-0.9,15.6c0.5-0.4,1-0.7,1.4-1.1
		c-44,3.6-88.3,4-132.3,1l1.5,1.5c-0.1-4.2-0.3-8.5-0.4-12.7C233.2,1160.7,230.2,1160.7,230.3,1162.6L230.3,1162.6L230.3,1162.6z"/>
	<path class="st1" d="M180.4,1144.3v17.7c0,1.9,3,1.9,3,0v-17.7C183.4,1142.3,180.4,1142.3,180.4,1144.3L180.4,1144.3L180.4,1144.3z
		"/>
	<path class="st1" d="M183.7,1164.7h148.5c1.9,0,1.9-3,0-3H183.7C181.8,1161.7,181.8,1164.7,183.7,1164.7L183.7,1164.7z"/>
	<path class="st1" d="M240.6,1165c0.4,3.3,0.5,6.5,0.3,9.8c-0.1,1.9,2.9,1.9,3,0c0.2-3.3,0.2-6.5-0.3-9.8
		C243.4,1163.1,240.4,1163.1,240.6,1165L240.6,1165z"/>
	<path class="st1" d="M250.1,1165.4c0.6,2.5,0.7,5,0.6,7.5c-0.1,1.9,2.9,1.9,3,0c0.2-2.8,0-5.6-0.7-8.3
		C252.6,1162.8,249.7,1163.6,250.1,1165.4L250.1,1165.4z"/>
	<path class="st1" d="M334.2,1163c1-3.9,1.5-7.9,1.4-12c0-1.9-3-1.9-3,0c0.1,3.8-0.3,7.5-1.3,11.2
		C330.8,1164,333.7,1164.8,334.2,1163L334.2,1163L334.2,1163z"/>
	<path class="st1" d="M183.9,1146.2c49.4,6.9,99.3,8.2,149,3.9c1.9-0.2,1.9-3.2,0-3c-49.4,4.3-99.1,3.1-148.2-3.8
		C182.8,1143,182,1145.9,183.9,1146.2L183.9,1146.2z"/>
	<path class="st1" d="M335.3,1163.7c9.9,0.9,19.7-0.3,29.2-3.3c1.8-0.6,1-3.5-0.8-2.9c-9.3,3-18.7,4.1-28.4,3.2
		C333.4,1160.6,333.4,1163.6,335.3,1163.7L335.3,1163.7L335.3,1163.7z"/>
	<path class="st1" d="M316.7,1165v10.4c0,1.9,3,1.9,3,0V1165C319.7,1163.1,316.7,1163.1,316.7,1165L316.7,1165z"/>
	<path class="st1" d="M339.3,1163c0.6,3.7,1.1,7.4,1.7,11c0.3,1.9,3.2,1.1,2.9-0.8c-0.6-3.7-1.1-7.4-1.7-11
		C341.9,1160.3,339.1,1161.1,339.3,1163L339.3,1163z"/>
	<path class="st1" d="M353.1,1162.4c0.3,2,0.1,4-0.4,5.9s2.4,2.7,2.9,0.8c0.7-2.5,0.8-5,0.4-7.5
		C355.7,1159.7,352.8,1160.5,353.1,1162.4L353.1,1162.4L353.1,1162.4z"/>
	<path class="st1" d="M194.9,1146.7c0.2,5.3,0.4,10.6,0.6,15.9c0.1,1.9,3.1,1.9,3,0c-0.2-5.3-0.4-10.6-0.6-15.9
		C197.8,1144.8,194.8,1144.8,194.9,1146.7L194.9,1146.7z"/>
	<path class="st1" d="M214.8,1148.5c0.4,4.1,0.8,8.2,1.2,12.2c0.2,1.9,3.2,1.9,3,0c-0.4-4.1-0.8-8.2-1.2-12.2
		C217.6,1146.6,214.6,1146.6,214.8,1148.5L214.8,1148.5z"/>
	<path class="st1" d="M226.3,1151c-0.3,2.4-0.1,4.8,0.6,7.1c0.5,1.9,3.4,1.1,2.9-0.8c-0.6-2.1-0.7-4.2-0.5-6.3
		C229.5,1149.1,226.5,1149.1,226.3,1151L226.3,1151L226.3,1151z"/>
	<path class="st1" d="M210.3,1133.3c0.1,4.7,0.5,9.3,1.3,13.8c0.3,1.9,3.2,1.1,2.9-0.8c-0.8-4.3-1.2-8.7-1.2-13
		C213.3,1131.3,210.3,1131.3,210.3,1133.3L210.3,1133.3z"/>
	<path class="st1" d="M213.7,1133.5c40.8,0.8,81.6,1.7,122.4,2.5c-0.5-0.4-1-0.7-1.4-1.1c0.7,4.2,0.7,8.3,0.2,12.6
		c-0.2,1.9,2.8,1.9,3,0c0.5-4.5,0.4-8.9-0.3-13.4c-0.1-0.7-0.8-1.1-1.4-1.1c-40.8-0.8-81.6-1.7-122.4-2.5
		C211.8,1130.5,211.8,1133.5,213.7,1133.5L213.7,1133.5z"/>
	<path class="st1" d="M187.1,1115.9c1,5.3,1.7,10.7,2.3,16.1c0.2,1.9,3.2,1.9,3,0c-0.6-5.7-1.4-11.3-2.4-16.9
		C189.7,1113.2,186.8,1114,187.1,1115.9L187.1,1115.9L187.1,1115.9z"/>
	<path class="st1" d="M190.4,1115.9c19.4,1.2,38.9,0.4,58.3,0.2c19.6-0.1,39.2-0.3,58.8-0.4l-1.5-1.5c0.2,5.1,0.4,10.2,0.5,15.3
		c0.1,1.9,3.1,1.9,3,0c-0.2-5.1-0.4-10.2-0.5-15.3c0-0.8-0.7-1.5-1.5-1.5c-19.6,0.1-39.2,0.3-58.8,0.4c-19.4,0.1-38.9,0.9-58.3-0.2
		C188.5,1112.8,188.5,1115.8,190.4,1115.9L190.4,1115.9z"/>
	<path class="st1" d="M191.7,1134c7.1-0.2,14.3-0.4,21.4-0.6c1.9-0.1,1.9-3.1,0-3c-7.1,0.2-14.3,0.4-21.4,0.6
		C189.8,1131,189.7,1134,191.7,1134L191.7,1134z"/>
	<path class="st1" d="M196.8,1102.5c0.6,4.1,1.2,8.1,1.9,12.2c0.3,1.9,3.2,1.1,2.9-0.8c-0.6-4.1-1.2-8.1-1.9-12.2
		C199.4,1099.8,196.5,1100.6,196.8,1102.5L196.8,1102.5z"/>
	<path class="st1" d="M199.5,1103.3c44.7-6.8,90.2-6.5,134.8,1.1c1.9,0.3,2.7-2.6,0.8-2.9c-45.1-7.6-91.2-8-136.4-1.1
		C196.8,1100.7,197.6,1103.6,199.5,1103.3L199.5,1103.3z"/>
	<path class="st1" d="M306.7,1116.8c6.2-0.3,12.3-0.6,18.5-0.8c3-0.1,6.6,0.5,8.6-2.1c1.2-1.5-1.4-3-2.6-1.5
		c-1.2,1.6-10.1,0.8-11.8,0.9c-4.2,0.2-8.4,0.4-12.6,0.6C304.7,1113.9,304.7,1116.9,306.7,1116.8L306.7,1116.8L306.7,1116.8z"/>
	<path class="st1" d="M332.4,1101c-0.6,3-1,6-1.1,9c-0.1,1.9,2.9,1.9,3,0c0.1-2.8,0.4-5.5,1-8.2
		C335.7,1099.9,332.8,1099.1,332.4,1101L332.4,1101z"/>
	<path class="st1" d="M210.1,1099.6v-17c0-1.9-3-1.9-3,0v17C207.1,1101.6,210.1,1101.6,210.1,1099.6L210.1,1099.6z"/>
	<path class="st1" d="M211,1084c36.5-1.8,73.1-2.5,109.6-2.2c1.9,0,1.9-3,0-3c-36.5-0.3-73.1,0.4-109.6,2.2
		C209.1,1081.1,209.1,1084.1,211,1084L211,1084z"/>
	<path class="st1" d="M319.1,1081.5c0.4,5.7,0.8,11.3,1.2,17c0.1,1.9,3.1,1.9,3,0c-0.4-5.7-0.8-11.3-1.2-17
		C322,1079.5,319,1079.5,319.1,1081.5L319.1,1081.5z"/>
	<path class="st1" d="M213.5,1102c0.4,3.7,0.7,7.4,1.1,11.2c0.2,1.9,3.2,1.9,3,0c-0.4-3.7-0.7-7.4-1.1-11.2
		C216.4,1100.1,213.3,1100.1,213.5,1102L213.5,1102z"/>
	<path class="st1" d="M225.9,1100.2c-0.1,3.1,0.2,6.1,0.8,9.2c0.3,1.9,3.2,1.1,2.9-0.8c-0.5-2.8-0.7-5.6-0.7-8.4
		C228.9,1098.3,225.9,1098.3,225.9,1100.2L225.9,1100.2z"/>
	<path class="st1" d="M246.8,1117.8c0.4,4.1,0.7,8.2,1.1,12.3c0.2,1.9,3.2,1.9,3,0c-0.4-4.1-0.7-8.2-1.1-12.3
		C249.7,1115.9,246.7,1115.9,246.8,1117.8L246.8,1117.8z"/>
	<path class="st1" d="M259.5,1116.6c0.4,4.1,0.7,8.2,1.1,12.3c0.2,1.9,3.2,1.9,3,0c-0.4-4.1-0.7-8.2-1.1-12.3
		C262.3,1114.7,259.3,1114.7,259.5,1116.6L259.5,1116.6z"/>
	<path class="st1" d="M280.4,1116.1c0.4,4.7,0.8,9.4,1.2,14.1c0.2,1.9,3.2,1.9,3,0c-0.4-4.7-0.8-9.4-1.2-14.1
		C283.3,1114.1,280.3,1114.1,280.4,1116.1L280.4,1116.1z"/>
	<path class="st1" d="M286.2,1134.8c0.5,4.7,0.9,9.4,1.4,14.1c0.2,1.9,3.2,1.9,3,0c-0.5-4.7-0.9-9.4-1.4-14.1
		C289,1132.9,286,1132.9,286.2,1134.8L286.2,1134.8z"/>
	<path class="st1" d="M299.2,1135.2c0.7,4.3,0.8,8.7,0.6,13.1c-0.1,1.9,2.9,1.9,3,0c0.3-4.7,0.1-9.3-0.7-13.9
		C301.8,1132.5,298.9,1133.3,299.2,1135.2L299.2,1135.2L299.2,1135.2z"/>
	<path class="st1" d="M315,1134.2c0.4,4.5,0.4,9-0.2,13.5c-0.2,1.9,2.8,1.9,3,0c0.5-4.5,0.6-9,0.2-13.5
		C317.9,1132.3,314.9,1132.3,315,1134.2L315,1134.2L315,1134.2z"/>
	<path class="st1" d="M268.8,1151.8c-0.3,2.9-0.5,5.9-0.8,8.8c-0.2,1.9,2.8,1.9,3,0c0.3-2.9,0.5-5.9,0.8-8.8
		C272,1149.9,269,1149.9,268.8,1151.8L268.8,1151.8z"/>
	<path class="st1" d="M276.4,1153.4c1,2.4,1.3,4.7,1,7.2c-0.2,1.9,2.8,1.9,3,0c0.3-2.8-0.1-5.5-1.1-8
		C278.6,1150.8,275.7,1151.6,276.4,1153.4L276.4,1153.4z"/>
	<path class="st1" d="M270.3,1097.3c0.4,4.7,0.5,9.4,0.6,14.1c0,1.9,3,1.9,3,0c0-4.7-0.2-9.4-0.6-14.1
		C273.2,1095.4,270.2,1095.4,270.3,1097.3L270.3,1097.3L270.3,1097.3z"/>
	<path class="st1" d="M282.2,1098.9c0.6,3.2,0.8,6.3,0.6,9.6c-0.1,1.9,2.9,1.9,3,0c0.3-3.5,0-6.9-0.7-10.4
		C284.7,1096.2,281.8,1097,282.2,1098.9L282.2,1098.9L282.2,1098.9z"/>
	<path class="st1" d="M237.6,1081.3c1.2,4.7,1.5,9.4,1.2,14.2c-0.2,1.9,2.8,1.9,3,0c0.4-5.1,0-10.1-1.3-15
		C240,1078.6,237.1,1079.4,237.6,1081.3L237.6,1081.3z"/>
	<path class="st1" d="M249.9,1081.3c0.7,3.9,1.3,7.8,2,11.7c0.3,1.9,3.2,1.1,2.9-0.8c-0.7-3.9-1.3-7.8-2-11.7
		C252.5,1078.6,249.6,1079.4,249.9,1081.3L249.9,1081.3z"/>
	<path class="st1" d="M293.3,1081.9c0.6,3.9,0.8,7.9,0.6,11.9c-0.1,1.9,2.9,1.9,3,0c0.3-4.3,0-8.5-0.7-12.7
		C295.9,1079.2,293,1080,293.3,1081.9L293.3,1081.9L293.3,1081.9z"/>
	<path class="st1" d="M1008.8,1080.9c0.1,5.8,0.2,11.6,0.3,17.3c0,0.8,0.7,1.5,1.5,1.5c25,0.2,49.9,0,74.9-0.7
		c12.1-0.3,24.3-0.8,36.4-1.3c2.9-0.1,7.7,0.6,9.4-2.6c0.7-1.3,0.6-3.3,0.6-4.6c0.2-3,0.3-6.1,0.4-9.2c0.1-1.9-2.9-1.9-3,0
		c-0.1,2.4-0.2,4.9-0.3,7.3c-0.2,3.5-0.5,5.2-4.2,5.9c-5.3,1-11.3,0.5-16.7,0.7c-10.8,0.4-21.7,0.7-32.5,1
		c-21.7,0.5-43.4,0.6-65,0.4l1.5,1.5c-0.1-5.8-0.2-11.6-0.3-17.3C1011.7,1079,1008.7,1079,1008.8,1080.9L1008.8,1080.9
		L1008.8,1080.9z"/>
	<path class="st1" d="M988,1061.8c0.2,5.4,0.4,10.8,0.6,16.3c0.1,1.9,3.1,1.9,3,0c-0.2-5.4-0.4-10.8-0.6-16.3
		C991,1059.9,988,1059.9,988,1061.8L988,1061.8z"/>
	<path class="st1" d="M990.8,1080.2h141.3c1.9,0,1.9-3,0-3H990.8C988.9,1077.2,988.9,1080.2,990.8,1080.2L990.8,1080.2z"/>
	<path class="st1" d="M991.9,1061.7h141.8c1.9,0,1.9-3,0-3H991.9C990,1058.7,990,1061.7,991.9,1061.7L991.9,1061.7z"/>
	<path class="st1" d="M1131.1,1060.7v17.9c0,1.9,3,1.9,3,0v-17.9C1134.1,1058.8,1131.1,1058.8,1131.1,1060.7L1131.1,1060.7z"/>
	<path class="st1" d="M1007.4,1059.6v-13.5c0-1.9-3-1.9-3,0v13.5C1004.4,1061.5,1007.4,1061.5,1007.4,1059.6L1007.4,1059.6z"/>
	<path class="st1" d="M1007,1047.6h136.2c1.9,0,1.9-3,0-3H1007C1005.1,1044.6,1005.1,1047.6,1007,1047.6L1007,1047.6z"/>
	<path class="st1" d="M1139.5,1046.1v12.9c0,1.9,3,1.9,3,0v-12.9C1142.5,1044.2,1139.5,1044.2,1139.5,1046.1L1139.5,1046.1z"/>
	<path class="st1" d="M1132.1,1061.1h8.4c1.9,0,1.9-3,0-3h-8.4C1130.1,1058.1,1130.1,1061.1,1132.1,1061.1L1132.1,1061.1z"/>
	<path class="st1" d="M992.1,1030.4v12.3c0,1.9,3,1.9,3,0v-12.3C995.1,1028.5,992.1,1028.5,992.1,1030.4L992.1,1030.4z"/>
	<path class="st1" d="M994.2,1030.8h127.3c1.9,0,1.9-3,0-3H994.2C992.2,1027.8,992.2,1030.8,994.2,1030.8L994.2,1030.8z"/>
	<path class="st1" d="M1119.3,1029.9v13.5c0,1.9,3,1.9,3,0v-13.5C1122.3,1028,1119.3,1027.9,1119.3,1029.9L1119.3,1029.9z"/>
	<path class="st1" d="M994.2,1046h125c1.9,0,1.9-3,0-3h-125C992.2,1043,992.2,1046,994.2,1046L994.2,1046z"/>
	<path class="st1" d="M1033.8,1027.6v-12.9c0-1.9-3-1.9-3,0v12.9C1030.8,1029.6,1033.8,1029.6,1033.8,1027.6L1033.8,1027.6z"/>
	<path class="st1" d="M1032.8,1015.1h120.5c1.9,0,1.9-3,0-3h-120.5C1030.9,1012.1,1030.9,1015.1,1032.8,1015.1L1032.8,1015.1z"/>
	<path class="st1" d="M1120.3,1029.7h29.7c1.9,0,1.9-3,0-3h-29.7C1118.4,1026.7,1118.4,1029.7,1120.3,1029.7L1120.3,1029.7z"/>
	<path class="st1" d="M1151.9,1014.2v12.9c0,1.9,3,1.9,3,0v-12.9C1154.9,1012.3,1151.9,1012.3,1151.9,1014.2L1151.9,1014.2z"/>
	<path class="st1" d="M997,1013.4h130.1c1.9,0,1.9-3,0-3H997C995,1010.4,995,1013.4,997,1013.4L997,1013.4L997,1013.4z"/>
	<path class="st1" d="M997.3,1011.4v-11.8c0-1.9-3-1.9-3,0v11.8C994.3,1013.3,997.3,1013.3,997.3,1011.4L997.3,1011.4z"/>
	<path class="st1" d="M996.4,1000.6h131.2c1.9,0,1.9-3,0-3H996.4C994.5,997.6,994.5,1000.6,996.4,1000.6L996.4,1000.6z"/>
	<path class="st1" d="M1126.6,999.1v10.7c0,1.9,3,1.9,3,0v-10.7C1129.6,997.1,1126.6,997.1,1126.6,999.1L1126.6,999.1z"/>
	<path class="st1" d="M1029.9,997.9V985c0-1.9-3-1.9-3,0v12.9C1026.9,999.9,1029.9,999.9,1029.9,997.9L1029.9,997.9z"/>
	<path class="st1" d="M1029.5,985.4h127.3c1.9,0,1.9-3,0-3h-127.3C1027.5,982.4,1027.5,985.4,1029.5,985.4L1029.5,985.4z"/>
	<path class="st1" d="M1155.2,984.5v6.2c0,1.9,3,1.9,3,0v-6.2C1158.2,982.5,1155.2,982.5,1155.2,984.5L1155.2,984.5z"/>
	<path class="st1" d="M1127,1000.6h29.7c1.9,0,1.9-3,0-3H1127C1125.1,997.6,1125.1,1000.6,1127,1000.6L1127,1000.6z"/>
	<path class="st1" d="M1155.2,986.2v11.2c0,1.9,3,1.9,3,0v-11.2C1158.2,984.2,1155.2,984.2,1155.2,986.2L1155.2,986.2z"/>
	<path class="st1" d="M1039.9,981.7V971c0-1.9-3-1.9-3,0v10.7C1036.9,983.6,1039.9,983.6,1039.9,981.7L1039.9,981.7z"/>
	<path class="st1" d="M1037.9,972h130.6c1.9,0,1.9-3,0-3h-130.6C1036,969,1035.9,972,1037.9,972L1037.9,972z"/>
	<path class="st1" d="M1168.5,972c1.9,0,1.9-3,0-3S1166.6,972,1168.5,972L1168.5,972z"/>
	<path class="st1" d="M1168.1,970.5v10.7c0,1.9,3,1.9,3,0v-10.7C1171.1,968.5,1168.1,968.5,1168.1,970.5L1168.1,970.5z"/>
	<path class="st1" d="M1156.2,984.9h13.5c1.9,0,1.9-3,0-3h-13.5C1154.2,981.9,1154.2,984.9,1156.2,984.9L1156.2,984.9L1156.2,984.9z
		"/>
	<path class="st1" d="M1010,957.6v11.8c0,1.9,3,1.9,3,0v-11.8C1013,955.6,1010,955.6,1010,957.6L1010,957.6z"/>
	<path class="st1" d="M1011.5,970.8h32c1.9,0,1.9-3,0-3h-32C1009.6,967.8,1009.6,970.8,1011.5,970.8L1011.5,970.8z"/>
	<path class="st1" d="M1011.8,957.3c41.5-8.8,84.4-9.5,126.2-2c1.9,0.3,2.7-2.6,0.8-2.9c-42.3-7.6-85.7-6.9-127.8,2
		C1009.1,954.8,1009.9,957.7,1011.8,957.3L1011.8,957.3z"/>
	<path class="st1" d="M1137.3,954.8v11.8c0,1.9,3,1.9,3,0v-11.8C1140.3,952.8,1137.3,952.8,1137.3,954.8L1137.3,954.8z"/>
	<path class="st1" d="M1020,958.1c7.1,2.2,14.9,1.3,22.2,1.2c8.2-0.1,16.4-0.3,24.6-0.4c16.7-0.3,33.4-0.6,50.1-0.8c1.9,0,1.9-3,0-3
		c-16.1,0.3-32.1,0.5-48.2,0.8c-7.9,0.1-15.7,0.3-23.6,0.4c-7.9,0.1-16.7,1.4-24.4-1C1018.9,954.7,1018.1,957.6,1020,958.1
		L1020,958.1L1020,958.1z"/>
	<path class="st1" d="M1034.1,959.2v10.1c0,1.9,3,1.9,3,0v-10.1C1037.1,957.3,1034.1,957.3,1034.1,959.2L1034.1,959.2z"/>
	<path class="st1" d="M1044.3,959.8c0.3,2.4,0.6,4.9,0.9,7.3c0.2,1.9,3.2,1.9,3,0c-0.3-2.4-0.6-4.9-0.9-7.3
		C1047.1,957.9,1044.1,957.9,1044.3,959.8L1044.3,959.8z"/>
	<path class="st1" d="M1082.8,959.3c0.3,3,0.6,6,1,9c0.2,1.9,3.2,1.9,3,0c-0.3-3-0.6-6-1-9C1085.6,957.4,1082.6,957.3,1082.8,959.3
		L1082.8,959.3z"/>
	<path class="st1" d="M1094.7,960.4v6.7c0,1.9,3,1.9,3,0v-6.7C1097.7,958.4,1094.7,958.4,1094.7,960.4L1094.7,960.4z"/>
	<path class="st1" d="M1086.9,972.1c-0.3,3.3-0.1,6.6,0.4,10c0.3,1.9,3.2,1.1,2.9-0.8c-0.5-3-0.5-6.1-0.3-9.2
		C1090,970.2,1087,970.2,1086.9,972.1L1086.9,972.1L1086.9,972.1z"/>
	<path class="st1" d="M1098,972.1c0.3,2.7,0.2,5.4-0.3,8c-0.3,1.9,2.5,2.7,2.9,0.8c0.5-2.9,0.7-5.9,0.4-8.8
		C1100.8,970.2,1097.8,970.2,1098,972.1L1098,972.1L1098,972.1z"/>
	<path class="st1" d="M1036.4,985.6v12.3c0,1.9,3,1.9,3,0v-12.3C1039.4,983.7,1036.4,983.7,1036.4,985.6L1036.4,985.6z"/>
	<path class="st1" d="M1047,986.2c0,3.1,0.3,6.2,0.8,9.4c0.3,1.9,3.2,1.1,2.9-0.8c-0.4-2.8-0.6-5.7-0.6-8.6
		C1050,984.2,1047,984.2,1047,986.2L1047,986.2L1047,986.2z"/>
	<path class="st1" d="M1060.9,972.2c0.2,3.5,0.5,7.1,0.7,10.6c0.1,1.9,3.1,1.9,3,0c-0.2-3.5-0.5-7.1-0.7-10.6
		C1063.8,970.2,1060.8,970.2,1060.9,972.2L1060.9,972.2z"/>
	<path class="st1" d="M1117.9,971c0.4,3.4,0.7,6.7,1.1,10.1c0.2,1.9,3.2,1.9,3,0c-0.4-3.4-0.7-6.7-1.1-10.1
		C1120.7,969.1,1117.7,969.1,1117.9,971L1117.9,971z"/>
	<path class="st1" d="M1143.8,971.6c0.1,2.6,0.2,5.2,0.3,7.9c0.1,1.9,3.1,1.9,3,0c-0.1-2.6-0.2-5.2-0.3-7.9
		C1146.7,969.6,1143.7,969.6,1143.8,971.6L1143.8,971.6z"/>
	<path class="st1" d="M1098,985v11.8c0,1.9,3,1.9,3,0V985C1101,983.1,1098,983.1,1098,985L1098,985z"/>
	<path class="st1" d="M1069.5,983.4v9.5c0,1.9,3,1.9,3,0v-9.5C1072.5,981.4,1069.5,981.4,1069.5,983.4L1069.5,983.4z"/>
	<path class="st1" d="M1011.2,1000.2c-0.2,3.9,0,7.7,0.7,11.6c0.3,1.9,3.2,1.1,2.9-0.8c-0.6-3.6-0.8-7.2-0.6-10.8
		C1014.3,998.2,1011.3,998.2,1011.2,1000.2L1011.2,1000.2L1011.2,1000.2z"/>
	<path class="st1" d="M1031.9,1000.7v10.1c0,1.9,3,1.9,3,0v-10.1C1034.9,998.8,1031.9,998.8,1031.9,1000.7L1031.9,1000.7z"/>
	<path class="st1" d="M1056.7,1002.2c0.5,2.7,0.6,5.3,0.4,8c-0.2,1.9,2.8,1.9,3,0c0.3-3,0.1-5.9-0.5-8.8
		C1059.2,999.5,1056.3,1000.3,1056.7,1002.2L1056.7,1002.2z"/>
	<path class="st1" d="M1083.5,1000.7c-0.3,2.8-0.1,5.5,0.4,8.3c0.4,1.9,3.3,1.1,2.9-0.8c-0.5-2.5-0.6-5-0.3-7.5
		C1086.7,998.8,1083.7,998.8,1083.5,1000.7L1083.5,1000.7L1083.5,1000.7z"/>
	<path class="st1" d="M1109.3,1000.2v7.3c0,1.9,3,1.9,3,0v-7.3C1112.3,998.2,1109.3,998.2,1109.3,1000.2L1109.3,1000.2z"/>
	<path class="st1" d="M1043.6,1015.3c0.2,4.1,0.2,8.2-0.2,12.4c-0.2,1.9,2.8,1.9,3,0c0.4-4.1,0.5-8.2,0.2-12.4
		C1046.5,1013.4,1043.5,1013.4,1043.6,1015.3L1043.6,1015.3z"/>
	<path class="st1" d="M1050.2,1015.3c0.3,4.3,0.4,8.6,0.2,12.9c-0.1,1.9,2.9,1.9,3,0c0.2-4.3,0.1-8.6-0.2-12.9
		C1053,1013.4,1050,1013.4,1050.2,1015.3L1050.2,1015.3z"/>
	<path class="st1" d="M1070.1,1013.6c-0.2,5-0.5,10.1-0.7,15.1c-0.1,1.9,2.9,1.9,3,0c0.2-5,0.5-10.1,0.7-15.1
		C1073.2,1011.7,1070.2,1011.7,1070.1,1013.6L1070.1,1013.6z"/>
	<path class="st1" d="M1075.2,1014.7c0.5,4.3,0.7,8.6,0.4,12.9c-0.1,1.9,2.9,1.9,3,0c0.3-4.3,0.1-8.6-0.4-12.9
		C1078,1012.8,1075,1012.8,1075.2,1014.7L1075.2,1014.7z"/>
	<path class="st1" d="M1098.1,1014.2c-0.3,4.7-0.1,9.2,0.6,13.8c0.3,1.9,3.2,1.1,2.9-0.8c-0.6-4.3-0.7-8.7-0.5-13.1
		C1101.2,1012.3,1098.2,1012.3,1098.1,1014.2L1098.1,1014.2z"/>
	<path class="st1" d="M1123.7,1014.2c0.4,3.9,0.8,7.8,1.2,11.8c0.2,1.9,3.2,1.9,3,0c-0.4-3.9-0.8-7.8-1.2-11.8
		C1126.5,1012.3,1123.5,1012.3,1123.7,1014.2L1123.7,1014.2z"/>
	<path class="st1" d="M1133.3,1015.9c0.2,2.7,0.2,5.4-0.2,8c-0.3,1.9,2.6,2.7,2.9,0.8c0.5-2.9,0.6-5.9,0.3-8.8
		C1136.1,1014,1133.1,1013.9,1133.3,1015.9L1133.3,1015.9z"/>
	<path class="st1" d="M998.8,1031.6v11.8c0,1.9,3,1.9,3,0v-11.8C1001.8,1029.6,998.8,1029.6,998.8,1031.6L998.8,1031.6z"/>
	<path class="st1" d="M1005.5,1031c0.4,4.1,0.7,8.2,1.1,12.3c0.2,1.9,3.2,1.9,3,0c-0.4-4.1-0.7-8.2-1.1-12.3
		C1008.4,1029.1,1005.4,1029.1,1005.5,1031L1005.5,1031z"/>
	<path class="st1" d="M1020.9,1029.9c0.3,3.6,0.6,7.1,0.9,10.7c0.2,1.9,3.2,1.9,3,0c-0.3-3.6-0.6-7.1-0.9-10.7
		C1023.7,1028,1020.7,1027.9,1020.9,1029.9L1020.9,1029.9z"/>
	<path class="st1" d="M1035.4,1030.5c0.5,4.1,1.1,8.2,1.6,12.3c0.3,1.9,3.3,1.9,3,0c-0.5-4.1-1.1-8.2-1.6-12.3
		C1038.2,1028.6,1035.2,1028.6,1035.4,1030.5L1035.4,1030.5z"/>
	<path class="st1" d="M1083.5,1031v14.6c0,1.9,3,1.9,3,0V1031C1086.5,1029.1,1083.5,1029.1,1083.5,1031L1083.5,1031z"/>
	<path class="st1" d="M1107,1029.9v12.3c0,1.9,3,1.9,3,0v-12.3C1110,1028,1107,1027.9,1107,1029.9L1107,1029.9z"/>
	<path class="st1" d="M1016.8,1047.7c0.6,3.6,0.6,7.3-0.1,10.9c-0.3,1.9,2.5,2.7,2.9,0.8c0.8-4.2,0.8-8.3,0.1-12.5
		C1019.3,1045,1016.5,1045.8,1016.8,1047.7L1016.8,1047.7z"/>
	<path class="st1" d="M1024.1,1048.9c0.2,3.4,0.5,6.7,0.7,10.1c0.1,1.9,3.1,1.9,3,0c-0.2-3.4-0.5-6.7-0.7-10.1
		C1026.9,1047,1023.9,1047,1024.1,1048.9L1024.1,1048.9z"/>
	<path class="st1" d="M1052.7,1047.8c-0.2,4.1,0,8.1,0.7,12.2c0.3,1.9,3.2,1.1,2.9-0.8c-0.6-3.8-0.8-7.5-0.6-11.4
		C1055.8,1045.9,1052.8,1045.9,1052.7,1047.8L1052.7,1047.8L1052.7,1047.8z"/>
	<path class="st1" d="M1060.9,1048.4c0.2,3.4,0.4,6.7,0.7,10.1c0.1,1.9,3.1,1.9,3,0c-0.2-3.4-0.4-6.7-0.7-10.1
		C1063.8,1046.5,1060.8,1046.5,1060.9,1048.4L1060.9,1048.4z"/>
	<path class="st1" d="M1067.4,1048.9c0.2,2.4,0.4,4.9,0.7,7.3c0.2,1.9,3.2,1.9,3,0c-0.2-2.4-0.4-4.9-0.7-7.3
		C1070.3,1047,1067.3,1047,1067.4,1048.9L1067.4,1048.9z"/>
	<path class="st1" d="M1094.2,1046.7c0.3,4.1,0.6,8.2,0.9,12.4c0.1,1.9,3.1,1.9,3,0c-0.3-4.1-0.6-8.2-0.9-12.4
		C1097,1044.8,1094,1044.8,1094.2,1046.7L1094.2,1046.7z"/>
	<path class="st1" d="M1113,1047.3c0.2,3.4,0.4,6.7,0.7,10.1c0.1,1.9,3.1,1.9,3,0c-0.2-3.4-0.4-6.7-0.7-10.1
		C1115.9,1045.4,1112.9,1045.3,1113,1047.3L1113,1047.3z"/>
	<path class="st1" d="M1128.2,1047.4c-0.5,3.5-0.7,7-0.4,10.5c0.2,1.9,3.2,1.9,3,0c-0.3-3.3-0.2-6.5,0.3-9.7
		C1131.4,1046.3,1128.5,1045.5,1128.2,1047.4L1128.2,1047.4L1128.2,1047.4z"/>
	<path class="st1" d="M997.7,1061.7c0.8,5.6,1.3,11.3,1.5,17c0.1,1.9,3.1,1.9,3,0c-0.2-6-0.7-11.9-1.6-17.8
		C1000.4,1059,997.5,1059.8,997.7,1061.7L997.7,1061.7z"/>
	<path class="st1" d="M1006.8,1061.8c-0.5,5.1-0.2,10,0.9,15c0.4,1.9,3.3,1.1,2.9-0.8c-1-4.7-1.3-9.4-0.8-14.2
		C1010,1059.9,1007,1059.9,1006.8,1061.8L1006.8,1061.8L1006.8,1061.8z"/>
	<path class="st1" d="M1030.1,1061.3c0.5,4.8,0.7,9.7,0.7,14.6c0,1.9,3,1.9,3,0c0-4.9-0.2-9.7-0.7-14.6
		C1032.9,1059.4,1029.9,1059.4,1030.1,1061.3L1030.1,1061.3z"/>
	<path class="st1" d="M1071.6,1060.2c0.6,5.6,0.8,11.2,0.7,16.8c0,1.9,3,1.9,3,0c0.1-5.6-0.1-11.2-0.7-16.8
		C1074.4,1058.3,1071.4,1058.2,1071.6,1060.2L1071.6,1060.2z"/>
	<path class="st1" d="M1079.6,1063c-0.3,4.5,0.1,8.9,1.1,13.3c0.4,1.9,3.3,1.1,2.9-0.8c-0.9-4.1-1.3-8.3-1-12.5
		C1082.7,1061,1079.7,1061,1079.6,1063L1079.6,1063z"/>
	<path class="st1" d="M1088.6,1061.8c-0.3,5.1-0.1,10.1,0.5,15.1c0.2,1.9,3.2,1.9,3,0c-0.7-5-0.8-10.1-0.5-15.1
		C1091.7,1059.9,1088.7,1059.9,1088.6,1061.8L1088.6,1061.8z"/>
	<path class="st1" d="M1116.4,1062.4c0.2,4.3,0.5,8.6,0.7,12.9c0.1,1.9,3.1,1.9,3,0c-0.2-4.3-0.5-8.6-0.7-12.9
		C1119.3,1060.5,1116.3,1060.5,1116.4,1062.4L1116.4,1062.4z"/>
	<path class="st1" d="M1020.1,1080.9v15.1c0,1.9,3,1.9,3,0v-15.1C1023.1,1079,1020.1,1079,1020.1,1080.9L1020.1,1080.9z"/>
	<path class="st1" d="M1042.7,1080.3c0.5,5.2,0.6,10.5,0.3,15.7c-0.1,1.9,2.9,1.9,3,0c0.3-5.2,0.2-10.5-0.3-15.7
		C1045.5,1078.4,1042.5,1078.4,1042.7,1080.3L1042.7,1080.3z"/>
	<path class="st1" d="M1056.6,1080.9c-0.3,4.7-0.1,9.4,0.4,14c0.2,1.9,3.2,1.9,3,0c-0.5-4.7-0.7-9.3-0.4-14
		C1059.7,1079,1056.7,1079,1056.6,1080.9L1056.6,1080.9z"/>
	<path class="st1" d="M1097.9,1080.9c0.2,4.9,0.5,9.7,0.7,14.6c0.1,1.9,3.1,1.9,3,0c-0.2-4.9-0.5-9.7-0.7-14.6
		C1100.8,1079,1097.8,1079,1097.9,1080.9L1097.9,1080.9z"/>
	<path class="st1" d="M1107.8,1083c0.7,4,0.6,8.1-0.1,12.1c-0.4,1.9,2.5,2.7,2.9,0.8c0.9-4.6,0.9-9.1,0.1-13.7
		C1110.3,1080.3,1107.4,1081.1,1107.8,1083L1107.8,1083L1107.8,1083z"/>
</g>
<g id="flying_coins">
	<path class="st1" d="M311,192.3c-1.9,11.7,3.3,22.7,10.2,31.8c7,9.2,16.5,16.7,28.2,18.4c1.9,0.3,2.7-2.6,0.8-2.9
		c-10.1-1.4-18.5-7.4-24.9-15.1c-7.1-8.6-13.3-19.8-11.4-31.3C314.2,191.2,311.3,190.4,311,192.3L311,192.3L311,192.3z"/>
	<path class="st1" d="M313.6,192.3c2.9-2.2,6.2-3.7,9.8-4.4c1.9-0.4,1.1-3.3-0.8-2.9c-4.1,0.8-7.8,2.6-11.1,5.1
		C310,191.4,312.1,193.5,313.6,192.3L313.6,192.3z"/>
	<path class="st1" d="M323.9,188.1c8.9,2.4,17,12.8,22.1,20c5.3,7.5,9.3,15.8,12,24.5c0.6,1.8,3.5,1.1,2.9-0.8
		c-3.1-10-7.8-19.5-14.2-27.8c-5.4-7.1-13.1-16.4-22-18.8C322.8,184.7,322,187.6,323.9,188.1L323.9,188.1z"/>
	<path class="st1" d="M350,242.7c3.8-1.9,7.2-4.6,9.9-8c1.2-1.5-0.9-3.6-2.1-2.1c-2.5,3.2-5.6,5.7-9.2,7.5
		C346.7,241,348.3,243.5,350,242.7L350,242.7L350,242.7z"/>
	<path class="st1" d="M318.3,188.3c-0.3,11.5,6.1,23,12.9,31.9c6.4,8.4,15.4,14.8,26.4,14.6c1.9,0,1.9-3,0-3
		c-11.1,0.2-19.7-7-25.7-15.7c-5.5-8.1-10.8-17.7-10.6-27.8C321.3,186.4,318.3,186.4,318.3,188.3L318.3,188.3L318.3,188.3z"/>
	<path class="st1" d="M315.1,206c1.5-1.8,3.3-3.2,5.4-4.3c1.7-0.8,0.2-3.4-1.5-2.6c-2.3,1.1-4.4,2.7-6,4.7
		C311.8,205.3,313.9,207.5,315.1,206L315.1,206z"/>
	<path class="st1" d="M313.5,199.2c1.9-1.4,3.8-2.4,6.1-3c1.9-0.5,1.1-3.4-0.8-2.9c-2.4,0.7-4.7,1.8-6.8,3.3
		C310.5,197.7,311.9,200.3,313.5,199.2L313.5,199.2z"/>
	<path class="st1" d="M324.1,224.5c2.1-1.7,4.3-3.4,6.4-5.1c1.5-1.2-0.6-3.3-2.1-2.1c-2.1,1.7-4.3,3.4-6.4,5.1
		C320.4,223.6,322.6,225.7,324.1,224.5L324.1,224.5z"/>
	<path class="st1" d="M330.1,231.1c1.7-1.3,3.4-2.6,5.1-3.9c0.6-0.5,1-1.3,0.5-2.1c-0.4-0.6-1.4-1-2.1-0.5c-1.7,1.3-3.4,2.6-5.1,3.9
		c-0.6,0.5-1,1.3-0.5,2.1C328.4,231.2,329.4,231.6,330.1,231.1L330.1,231.1z"/>
	<path class="st1" d="M340.7,238.6c1.7-1.7,3.5-3.3,5.2-5c1.4-1.3-0.7-3.5-2.1-2.1c-1.7,1.7-3.5,3.3-5.2,5
		C337.2,237.8,339.3,240,340.7,238.6L340.7,238.6z"/>
	<path class="st3" d="M324.4,194.5c1.9,1.7,3.7,3.5,5.6,5.2c-0.1-0.6-0.2-1.2-0.2-1.8c-2,3.2-3.1,7.3-0.4,10.5
		c0.9,1.1,2.3,2,3.8,2.3c0.7,0.1,1.3,0,2,0c0.5-0.1,0.9-0.3,1.4-0.4c5.5-0.9,6.5,1.2,2.9,6.2c-1.8,0.7-1,3.6,0.8,2.9
		c3.7-1.4,6.3-5.5,4.1-9.3c-1-1.8-3.1-3.1-5.1-3.2c-0.7-0.1-1.4,0.1-2.1,0.1c-2.4,1.3-4.5,0.3-6.3-2.8c0.1-1.7,0.6-3.2,1.6-4.5
		c0.3-0.5,0.2-1.4-0.2-1.8c-1.9-1.7-3.7-3.5-5.6-5.2C325.1,191.1,323,193.2,324.4,194.5L324.4,194.5z"/>
	<path class="st3" d="M341.9,218.6c1.7,2,3.3,3.9,5,5.9c1.2,1.5,3.4-0.7,2.1-2.1c-1.7-2-3.3-3.9-5-5.9
		C342.8,215,340.7,217.2,341.9,218.6L341.9,218.6z"/>
	<path class="st1" d="M408.7,172c-8.8-6.9-14.2-26.5-6.8-35.8c8.7-10.7,26-15.3,35.7-3.9c8.1,9.5,8.6,24.4,2.5,35.1
		c-3.7,6.5-9.1,9.6-16.6,9.7c-6.5,0.1-12.7-2.4-17.2-7.2c-1.3-1.4-3.4,0.7-2.1,2.1c7.3,7.8,20.4,10.7,30.1,5.7
		c10.1-5.3,13.9-19.7,12.7-30.2c-1.2-10.6-7.7-22-18.7-24.8c-10.6-2.7-26.3,4.9-31,14.8c-2.9,6.1-1.8,13.4-0.3,19.8
		c1.5,6.4,4.1,12.5,9.4,16.6C408,175.3,410.2,173.2,408.7,172L408.7,172z"/>
	<path class="st3" d="M417.1,134.4c0-0.1-0.1-0.3-0.1-0.4c-0.2,0.6-0.5,1.1-0.7,1.7c-0.9-0.3-1-0.2-0.4,0.6c0.6,1,1,2,1.4,3.1
		c0.3-0.6,0.7-1.2,1-1.8c-3.9,1.2-8.8,3.9-7.4,8.8c0.4,1.5,1.4,2.8,2.9,3.3c1.2,0.5,1.9,0,3.1-0.1c1.8-0.9,3.7-0.6,5.5,1
		c1.5,4.4,0.3,6.6-3.7,6.9c-1.2,0-1.8,1.3-1.3,2.3c0.9,1.7,1.6,3.4,2.2,5.2s3.5,1.1,2.9-0.8c-0.6-2.1-1.4-4-2.5-5.9
		c-0.4,0.8-0.9,1.5-1.3,2.3c4.8-0.1,9.4-4.6,7.4-9.6c-0.9-2.3-3-4.1-5.4-4.6c-1.4-0.3-2.6,0.3-3.9,0.3c-2.5,0-3.2-0.5-1.9-2.9
		c1.2-2.2,1.9-2.5,4.2-3.2c0.7-0.2,1.3-1.1,1-1.8c-0.7-2-1.4-4.8-3.4-5.8c-0.5-0.2-1.1-0.3-1.5,0c-0.1,0.1-0.3,0.2-0.4,0.3
		c-0.6,0.4-0.8,1-0.7,1.7c0,0.1,0.1,0.3,0.1,0.4C414.6,137,417.5,136.2,417.1,134.4L417.1,134.4L417.1,134.4z"/>
	<path class="st1" d="M426.5,125.9c15.2-3.9,23.1,12.5,23.4,25c0.1,5.7-0.4,12.1-3.8,16.9c-3.7,5.2-10.3,6.8-15.8,9.2
		c-1.8,0.8-0.2,3.4,1.5,2.6c6.6-2.9,13.8-4.8,17.7-11.5c3.7-6.4,4-14.9,3.1-22.1c-1.6-13.2-12.1-26.8-26.8-23
		C423.9,123.5,424.7,126.4,426.5,125.9L426.5,125.9L426.5,125.9z"/>
	<path class="st1" d="M443.2,166.4c1.4-0.3,2.8-0.6,4.2-0.9c1.9-0.4,1.1-3.3-0.8-2.9c-1.4,0.3-2.8,0.6-4.2,0.9
		C440.5,163.9,441.3,166.8,443.2,166.4L443.2,166.4z"/>
	<path class="st1" d="M446.8,154.9c1.6-0.5,3.2-1,4.7-1.6c1.8-0.6,1-3.5-0.8-2.9c-1.6,0.5-3.2,1-4.7,1.6
		C444.2,152.6,445,155.5,446.8,154.9L446.8,154.9z"/>
	<path class="st1" d="M445.8,146c1-0.2,2.1-0.4,3.1-0.6c0.8-0.1,1.2-1.1,1-1.8c-0.2-0.8-1-1.2-1.8-1c-1,0.2-2.1,0.4-3.1,0.6
		c-0.8,0.1-1.2,1.1-1,1.8C444.2,145.8,445,146.1,445.8,146L445.8,146z"/>
	<path class="st1" d="M439.8,133.4c1.9,0.3,3.7,0.2,5.5-0.4c1.8-0.6,1-3.5-0.8-2.9c-1.3,0.4-2.6,0.6-3.9,0.4c-0.8-0.1-1.6,0.2-1.8,1
		C438.5,132.2,439,133.3,439.8,133.4L439.8,133.4L439.8,133.4z"/>
	<path class="st1" d="M423.2,322.6c-13.1-3.8-21.6-16.6-21.8-30c-0.3-15.3,13-28.4,28.2-21.6c12.8,5.7,17.7,20.7,18.1,33.8
		c0.2,6.3-0.9,13.9-6.6,17.6c-5.9,3.9-13.6,2.4-19.9,0.4c-1.8-0.6-2.6,2.3-0.8,2.9c10.2,3.3,23.1,3.5,28.2-7.9
		c4.9-10.9,1.8-26.5-3.8-36.5c-5.6-10.1-17.6-17.9-29.5-14.4c-12.4,3.7-18,17.2-16.6,29.2c1.5,13.5,10.6,25.7,23.8,29.5
		C424.3,326.1,425.1,323.2,423.2,322.6L423.2,322.6L423.2,322.6z"/>
	<path class="st3" d="M416.6,278.3c2.5,2.7,4.3,5.5,5.6,8.9c0.6-0.6,1.2-1.2,1.8-1.8c-4.8-1-7.3,3.1-7,7.5c0.1,1.5,0.4,3.3,1.9,4.1
		c1.1,0.6,2.7,0.2,3.8,0.2c1.2-0.1,2.3-0.2,3.5-0.1c5.3,0.4,6,2.7,2.2,6.9c-1,0.1-2,1.2-1.3,2.3c1.8,2.8,3.5,5.7,4.9,8.7
		c0.8,1.7,3.4,0.2,2.6-1.5c-1.5-3-3.1-5.9-4.9-8.7c-0.4,0.8-0.9,1.5-1.3,2.3c4.2-0.5,7.7-4.4,5.5-8.7c-1-1.9-2.9-3.1-4.8-3.7
		c-1.5-0.5-3-0.5-4.5-0.5c-1.2,0.1-2.3,0.2-3.5,0.3c-1.9-2.3-1.2-4.3,2.2-6c1,0.2,2.3-0.7,1.8-1.8c-1.5-3.9-3.5-7.2-6.4-10.2
		C417.4,274.8,415.3,276.9,416.6,278.3L416.6,278.3L416.6,278.3z"/>
	<path class="st1" d="M406.2,271.6c-12.9,11.1-16.9,30.2-7.2,44.7c9.4,14.1,28.3,18.2,42.6,9c1.6-1,0.1-3.6-1.5-2.6
		c-13.4,8.6-31.1,4.5-39.3-9.2c-8-13.4-3.9-29.9,7.6-39.8C409.8,272.5,407.7,270.4,406.2,271.6L406.2,271.6L406.2,271.6z"/>
	<path class="st4" d="M414.2,270.3c-1.8,4-4.1,10.8-3.8,19.4c0.1,2.6,0.8,17.1,11.3,26.9c7.2,6.7,14.8,7.1,14.5,9.4
		c-0.4,2.5-9.8,4.5-18.3,2.4c-9.3-2.3-17.6-9.7-21.2-19.4c-0.9-2.5-4.5-12.5,0.5-23.4C402.3,274.7,412.3,270.9,414.2,270.3
		L414.2,270.3z"/>
	<path class="st5" d="M319.9,188c0.4,3.8,1.4,9.7,4,16.4c2.6,6.4,7.1,17.9,18.8,24.5c2.9,1.6,8.4,4.2,16.4,4.6
		c-0.7,1.4-2.4,4.1-5.6,6.2c-2.1,1.3-4,1.9-5.4,2.2c-4.1-1.2-10.3-3.6-16.7-8.3c-4.1-3.1-13.6-10.4-17.7-23.7
		c-2.3-7.5-2.1-14.3-1.3-19.4C314.8,189.6,317.3,188.8,319.9,188L319.9,188z"/>
	<path class="st4" d="M428.2,123.7c3,1.6,8.2,5,11.8,11.3c5.1,8.7,4,17.3,3.5,21.5c-0.5,3.8-1.2,9.4-5.4,14.8
		c-2.2,2.9-4.7,4.8-6.5,5.9c2.2-0.1,7.8-0.8,12.4-5.1c3.6-3.4,4.7-7.3,5.9-11.6c1.9-6.8,1.3-12.3,1.1-14.2c-0.8-5.8-2.9-9.9-3.5-11
		c-1.9-3.6-4.4-8.2-9.7-10.5C433.9,123.1,430.2,123.4,428.2,123.7L428.2,123.7z"/>
</g>
<g id="Layer_3">
</g>
<g id="girl_and_the_piggie">
	<g id="leg_right">
		<path class="st1" d="M512.9,940.6c-2.9,22.2-5.8,44.4-8.7,66.7c-55.7,12.2-83.3,20.6-82.7,25.3c0.8,5.7,42.5,5.9,125.3,0.7
			c3.6-29.8,7.1-59.6,10.7-89.3C542.6,942.9,527.8,941.7,512.9,940.6L512.9,940.6z"/>
		<path class="st6" d="M633.9,555.3c1,9.7,2,25.8,0.2,45.6c-2.7,29.6-10.3,51.1-12.9,58.8c-21.3,62.4-31.6,144.3-36.4,183.1
			c-3.4,27.5-7.2,68.6-6.3,119.8c-5.6,3.1-24.2,12.6-48.6,8.7c-22.6-3.6-36.7-16.3-41.5-21c-2.5-76.9,4-138.5,10.8-181.6
			c7.2-46.2,17.5-93,29.3-140.2c7-28.2,14-56.3,21.1-84.5C577.6,547.7,605.8,551.5,633.9,555.3L633.9,555.3z"/>
		<path class="st7" d="M632.9,585.4c-3.3,13.1-8.6,32.7-15.8,56.1c-23.8,76.6-45.2,116.4-61.3,159c-14.4,38-30.4,93.8-35,168.2
			c5.3,1.7,12.8,3.4,21.8,3.3c16.5-0.2,28.9-6.3,35-9.9c0.7-49.2,3.9-90.5,7.3-122c2.7-25.4,5.4-50.2,11.9-83.1
			c7.8-39.6,11.7-59.4,19.8-82.5c5.5-15.4,12.1-31.1,15.2-55.4C633.3,605.1,633.2,593.4,632.9,585.4L632.9,585.4z"/>
		<path class="st8" d="M594,770.8c-7.3,17.9-14.3,36.6-21.1,56.1C555.1,878,541.8,926.7,532,972c5.3,0.5,12,0.6,19.8-0.7
			c11.6-1.9,20.6-6,26.4-9.2c-0.5-19.9-0.3-40.8,0.7-62.7C580.9,852.1,586.6,809,594,770.8L594,770.8z"/>
	</g>
	<g id="leg_left">
		<path class="st1" d="M696.2,936c5.1,16.7,10.2,33.3,15.3,50c-39.9,28.2-58.6,44.7-56,49.3c3.3,5.9,40.4-7,111.3-38.7
			c-10.2-28.4-20.4-56.9-30.7-85.3C722.9,919.5,709.5,927.7,696.2,936L696.2,936z"/>
		<path class="st6" d="M674.1,534.3c4.2,8.8,10.7,23.6,15.8,42.8c7.6,28.7,7.7,51.5,7.9,59.6c1.2,66,19.5,146.5,28.1,184.5
			c6.1,27.1,16.6,66.9,34.9,114.8c-4.2,4.8-18.5,20-42.8,24.8c-22.5,4.4-40.1-2.8-46.1-5.6c-28.5-71.5-43.4-131.6-51.8-174.4
			c-9-45.9-15.2-93.4-20.3-141.8c-3-28.9-6-57.8-9-86.6C618.6,546.3,646.4,540.3,674.1,534.3L674.1,534.3z"/>
		<path class="st9" d="M623.6,545.8c13.5,56.5,26.9,113,40.2,169.5c19.2,81.5,38.1,163.1,56.7,244.7c4.5-0.9,10-2.5,15.8-5.3
			c11.7-5.6,19.4-13.3,23.7-18.5c-6.9-18.3-15.3-42.5-23.7-71.2c-16.3-55.5-24-99.5-27-118.1c-5.5-33.8-8.8-54.1-9.9-83.1
			c-0.7-19.6,0.2-29.3-2.6-49.5c-1.2-8.6-4.7-30.1-13.9-56.7c-3.4-9.8-6.7-17.9-9.2-23.7C657.1,537.9,640.4,541.9,623.6,545.8
			L623.6,545.8z"/>
		<path class="st5" d="M695.5,643.5c-0.3,74.7,5.6,158,22.4,247.4c4.2,22.3,8.8,43.8,13.9,64.6c3-0.9,6.4-2.1,9.9-4
			c8.9-4.6,14.9-10.7,18.5-15.2c-10.3-28.9-20.2-59.9-29-93C711.7,770.5,701,703,695.5,643.5L695.5,643.5z"/>
	</g>
	<g id="torso">
		<path class="st10" d="M561.3,325.4c-13.9,11.2-20,25.1-23.6,33.4c-11.3,25.9-8.9,49.6-7.5,62.2c3.6,32.3,14.7,37.6,20.2,68
			c2.9,16.3,4,37.8-2.3,64.6c4.3,3.8,37.4,32.1,81.3,23.6c25.9-5,42.5-20.3,49-27.1c2.3-64.5-1.4-117.7-5.8-156.8
			c-5.1-45.5-10.4-65-27.1-76.3C622.1,301.2,584.3,306.9,561.3,325.4L561.3,325.4z"/>
		<path class="st4" d="M608.5,306.4c6.3,12.6,14,30.2,20.4,52.1c16.2,55.5,12.9,101.4,11.2,117.4c-4.6,45-18.5,80.2-29.7,102.9
			c7,0.2,16.1-0.4,26.4-3.3c20.9-5.9,34.5-18.3,40.9-25.1c0.9-34.5,0.6-63.5,0-85.1c0,0-0.8-31.7-6.6-83.8c-4-36.2-6.8-48-16.5-58.1
			C640.4,308.8,619.8,306.6,608.5,306.4L608.5,306.4z"/>
		<path class="st9" d="M665.9,353.9c-1.7,0.1,0.4,25.6-2,73.2c-3.1,61.6-10.2,86.9-12.5,95c-6.8,23.2-15.5,41.2-21.8,52.8
			c5.4-0.4,12.6-1.5,20.4-4.6c14.8-5.9,24-15.7,28.4-21.1c0.6-19.9,0.9-49.1-0.7-84.4C675.1,407.6,668.3,353.7,665.9,353.9z"/>
	</g>
	<g id="piggie">
		<path class="st11" d="M540.8,395.9c-7.5,7.3-11.4,15.1-13.3,19.7c-4.5,10.8-4.6,20-4.6,24.9c0,13.2,3.6,22.7,7.5,33.3
			c2.8,7.4,7.3,17.6,14.8,28.9c1.6,0.5,4,1.1,6.9,1.2c2.8,0,5-0.4,6.7-0.9c-1-6.3-1.9-12.5-2.9-18.8c1.7,0.4,4.3,0.9,7.5,1.4
			c15.1,2.3,27.4,0.7,34.7-0.3c3.4-0.5,8.2-1.2,13.9-2.6c-0.5,3.8-1,7.5-1.4,11.3c5.5,3.1,7.9,1.9,8.7,1.4c1.6-1,1.8-2.8,3.8-9
			c0.9-2.9,1.8-5.2,2.3-6.7c2.2-0.9,4.4-1.7,6.7-2.6c-0.6,2.1-1.2,4.2-1.7,6.4c1.7,0.4,4.5,0.9,7.8,0.3c1.9-0.3,3.4-0.9,4.6-1.4
			c1.3-4.7,2.7-9.4,4-14.2c3.8-4.1,7.4-6,10.1-6.9c3-1.1,4-0.7,6.4-2c4.9-2.8,6.6-8.1,6.9-9.3c0.4-1.3,1.7-6.2-0.6-11
			c-1.3-2.7-2.2-2.3-4.9-6.4c-2.3-3.4-2.2-4.6-4.3-8.4c-1.1-1.8-2.8-4.5-5.5-7.5c1.9-5.6,3.6-8.2,4.9-9.5c0.3-0.3,1.2-1.2,1.2-2.3
			c0-1-0.9-1.9-2.3-2.9c-3.4-2.4-5.5-3.8-8.4-3.5c-3.7,0.5-5.9,3.4-6.4,4c-1.5-2.5-3.7-6-6.9-9.5c-10.1-11.1-22.2-15.3-27.5-16.8
			c-20.1-5.6-37.3,1.8-47.7,6.4C556.1,385,548.4,388.4,540.8,395.9L540.8,395.9z"/>
		<path d="M531,472.2c-6-16.2-8.4-34.1-3.4-50.9c4.8-15.9,15.5-28.5,30.6-35.4c15.2-7,33.6-12.1,50.1-7.9
			c14.4,3.7,26.8,13.1,34.1,26.1c0.9,1.7,3.5,0.2,2.6-1.5c-12.3-22-37.6-32.8-62-27.8c-13.8,2.8-28.8,7.7-39.7,16.8
			c-9.9,8.3-16.6,20.2-19.6,32.7c-3.8,16.3-1.4,33.2,4.4,48.7C528.8,474.7,531.7,474,531,472.2L531,472.2L531,472.2z"/>
		<path d="M617,433.6c-0.4-4.1-0.2-14.4,5.3-15.2c3.4-0.5,5.6,3.9,9.4,3.6c1.9-0.2,1.9-3.2,0-3c-2.6,0.3-4.4-2.4-6.7-3.4
			c-2.2-0.9-4.3-0.5-6.1,1c-4.6,3.8-5.3,11.5-4.8,17C614.2,435.5,617.2,435.5,617,433.6L617,433.6L617,433.6z"/>
		<path d="M629.5,419.5c5.7-2.4,9.4,3.8,4,6.8c-1.8,1-4,1.6-6,2.3c-4,1.4-8.1,2.8-12.1,4.2c-1.8,0.6-1,3.5,0.8,2.9
			c5.2-1.8,10.5-3.5,15.7-5.5c2.7-1,5.9-2.4,7.1-5.3c2.9-7.1-5.6-10.3-10.9-8C626.3,417.6,627.8,420.2,629.5,419.5L629.5,419.5z"/>
		<path d="M646.5,399.1c-2.7,1.6-5.8,4.1-5,7.7c0.3,1.5,1.3,2.6,2.7,3.3c2.1,1.1,4.2,1.7,6.2,3.2c1.5,1.2,3.6-0.9,2.1-2.1
			c-1.8-1.4-3.7-2.4-5.7-3.3c-1.5-0.7-2.8-1.4-2-3.3c0.6-1.4,2.1-2.2,3.3-2.9C649.7,400.7,648.2,398.1,646.5,399.1L646.5,399.1
			L646.5,399.1z"/>
		<path d="M644.4,409.2c-0.8,5.1,2.6,11,8.5,9.8c2.4-0.5,3.9-2.3,4.9-4.4c1.1-2.5,1.3-6,3.8-7.5c1.6-1,0.1-3.6-1.5-2.6
			c-2.6,1.6-3.4,4.2-4.3,6.9c-0.6,1.8-1.3,4-3.3,4.6c-3.6,1.1-5.7-3-5.2-6C647.5,408.1,644.6,407.2,644.4,409.2L644.4,409.2
			L644.4,409.2z"/>
		<path d="M646.6,402.7c4.3-4.7,10.1,0.1,13.2,3.5c1.3,1.4,3.4-0.7,2.1-2.1c-4.3-4.7-12-9.5-17.4-3.5
			C643.2,402,645.3,404.1,646.6,402.7L646.6,402.7z"/>
		<path d="M641.8,435.1C641.7,435.1,641.7,435.1,641.8,435.1C641.7,435,641.7,435,641.8,435.1c-0.1,0-0.2-0.1-0.2-0.2
			c0.1,0.1,0.1,0.1,0,0s-0.1-0.2,0-0.1c0,0.1,0,0,0-0.1s0-0.1,0,0v-0.3c0,0.1,0,0.1,0,0c-0.1,0.1-0.1,0.1,0,0
			c-0.2,0.1,0.2,0-0.1,0.1c0.1-0.1,0.1-0.1,0,0c0.1,0,0.1,0,0,0h0.3c-0.1,0-0.2,0-0.1,0c0.1,0,0.1,0,0.2,0.1c-0.1-0.1-0.1,0,0,0
			c0.1,0.1,0.2,0.1,0,0c0.1,0.1,0.1,0.2,0,0.1c0-0.1,0,0,0,0.1v-0.2c-0.1,0.2,0,0.2,0,0c-0.1,0.1-0.1,0.2,0,0l-0.2,0.2
			c0.2-0.2-0.2,0.1,0,0c-0.1,0-0.2,0.1-0.3,0.1c0.1,0,0.1,0,0,0c0.1,0.1,0.1,0,0,0c-1.6-1-3.2,1.6-1.5,2.6c1.6,1,3.7,0.3,4.6-1.3
			c1-1.8-0.1-3.9-2-4.4c-1.7-0.5-3.6,0.4-4.1,2.2c-0.4,1.7,0.6,3.6,2.4,4.1C642.9,438.5,643.7,435.6,641.8,435.1L641.8,435.1
			L641.8,435.1z"/>
		<path d="M655.7,426.5c0.2,0.1,0.4,0.2,0.5,0.4c-0.1-0.2,0.1,0.3,0,0.1c0-0.2,0,0.4,0,0.1s-0.1,0.4,0,0c0.1-0.3-0.2,0.3,0,0
			c0.1-0.2-0.2,0.2-0.1,0.1c-0.2,0.2-0.4,0.3-0.7,0.2c-0.2-0.1-0.3-0.2-0.4-0.3c-0.1-0.1-0.1-0.1,0,0c0-0.1-0.1-0.1-0.1-0.2
			c0.1,0.3,0-0.4,0-0.1s0.1-0.3,0,0s0.1-0.2,0-0.1c-0.1,0.2,0,0,0.1-0.1c-0.1,0.1-0.1,0.1,0,0s0.2-0.1,0.3-0.1
			C655.1,426.6,655.6,426.5,655.7,426.5c-0.8-0.2-1.7,0.2-1.8,1c-0.2,0.8,0.2,1.7,1,1.8c1.3,0.3,2.5-0.5,2.9-1.8
			c0.3-1.3-0.2-2.7-1.6-3.1c-1.3-0.4-2.6,0.6-2.9,1.8c-0.4,1.3,0.3,2.6,1.6,3.1c0.7,0.2,1.7-0.3,1.8-1
			C656.9,427.5,656.5,426.8,655.7,426.5L655.7,426.5L655.7,426.5z"/>
		<path d="M654.1,417.4c3.3,3.8,5.4,8.3,6.3,13.3c0.4,1.9,3.3,1.1,2.9-0.8c-1-5.5-3.5-10.4-7.1-14.6
			C654.9,413.8,652.8,416,654.1,417.4L654.1,417.4L654.1,417.4z"/>
		<path d="M661.4,432.6c1.3,1.2,2.9,2.1,4.7,2.5c1.9,0.4,2.7-2.5,0.8-2.9c-1.3-0.3-2.4-0.8-3.4-1.7
			C662.1,429.1,660,431.2,661.4,432.6L661.4,432.6z"/>
		<path d="M666.4,433.1c-7.1,0.7-13.2,4.8-15.7,11.7c-2.1,5.9-1.3,14.6,5.7,16.7c6.1,1.8,11.7-2.6,13.9-8.1s2.9-16.4-3.1-19.9
			c-1.7-1-3.2,1.6-1.5,2.6c4.1,2.4,3.3,11.5,2.1,15.3c-1.4,4.5-5.5,8.8-10.6,7.1c-5.9-2-5.2-10-2.9-14.5c2.4-4.6,7-7.2,12-7.8
			C668.3,435.9,668.4,432.9,666.4,433.1L666.4,433.1L666.4,433.1z"/>
		<path d="M659,449.3v-0.6c0-0.8-0.7-1.5-1.5-1.5s-1.5,0.7-1.5,1.5v0.6c0,0.8,0.7,1.5,1.5,1.5S659,450.2,659,449.3L659,449.3z"/>
		<path d="M667,443.8c-0.2-0.2-0.4-0.4-0.5-0.6c-0.5-0.6-1.6-0.6-2.1,0c-0.6,0.6-0.6,1.5,0,2.1c0.2,0.2,0.4,0.4,0.5,0.6
			c0.5,0.6,1.6,0.6,2.1,0C667.6,445.3,667.5,444.4,667,443.8L667,443.8z"/>
		<path d="M633.2,447.2c1.9,2.1,5.3,1.6,6.9-0.6c0.5-0.7,0.1-1.7-0.5-2.1c-0.8-0.4-1.6-0.1-2.1,0.5c-0.5,0.7-1.7,0.5-2.2-0.1
			C634.1,443.6,631.9,445.8,633.2,447.2L633.2,447.2L633.2,447.2z"/>
		<path d="M636.5,447.5c2.2,6.4,9.6,9.5,15.7,6.6c1.7-0.8,0.2-3.4-1.5-2.6c-4.3,2-9.7-0.4-11.3-4.8
			C638.7,444.9,635.8,445.6,636.5,447.5L636.5,447.5L636.5,447.5z"/>
		<path d="M656,459.1c-3.4,2.7-6.9,5.4-10.3,8.1c-1.5,1.2,0.6,3.3,2.1,2.1c3.4-2.7,6.9-5.4,10.3-8.1
			C659.7,460.1,657.5,458,656,459.1L656,459.1L656,459.1z"/>
		<path d="M645.2,468.5c-1.8,4.6-3.2,9.3-4.2,14.1c-0.4,1.9,2.5,2.7,2.9,0.8c1-4.8,2.4-9.5,4.2-14.1
			C648.8,467.5,645.9,466.7,645.2,468.5L645.2,468.5z"/>
		<path d="M527.3,469.5c2.4,10,6.4,19.6,12.3,28.1c1.7,2.5,3.7,6,6.6,7.2c3.7,1.6,8.8,0.3,12.6-0.3c0.6-0.1,1.2-0.9,1.1-1.4
			c-0.6-6.3-1.6-12.5-2.9-18.7c-0.4-1.9-3.3-1.1-2.9,0.8c1.3,5.9,2.2,11.9,2.8,17.9c0.4-0.5,0.7-1,1.1-1.4
			c-4.3,0.7-9.2,1.8-12.7-1.4c-2.7-2.5-5-6.8-6.8-10c-3.9-6.8-6.6-14-8.4-21.6C529.7,466.8,526.8,467.6,527.3,469.5L527.3,469.5
			L527.3,469.5z"/>
		<path d="M556.7,485.6c9.5,2.1,19.2,3.1,28.9,2.9c8.2-0.2,19-0.4,26.2-4.6c1.7-1,0.2-3.6-1.5-2.6c-7.3,4.2-18.4,4.1-26.6,4.2
			c-8.8,0.1-17.6-0.9-26.3-2.8C555.6,482.3,554.8,485.2,556.7,485.6L556.7,485.6z"/>
		<path d="M610.8,478c-0.8,4.6-1.8,9.4-1.9,14.1c-0.1,3,1.5,4.6,4.5,4.7c2.5,0.1,7.5-0.1,9-2.3c1.2-1.9,1.5-5.2,2.1-7.3
			c0.7-2.4,1.5-4.9,2.2-7.3c0.6-1.9-2.3-2.6-2.9-0.8c-1.5,4.9-2.9,9.7-4.3,14.6l1-1c-1.7,0.5-3.7,1.2-5.5,1.1
			c-3-0.1-3.2-1.7-2.9-4.2c0.4-3.6,0.9-7.2,1.6-10.8C614,476.9,611.1,476.1,610.8,478L610.8,478L610.8,478z"/>
		<path d="M624.8,481.1c5-1.3,9.4-3.9,13-7.7c1.3-1.4-0.8-3.5-2.1-2.1c-3.2,3.4-7.1,5.7-11.7,6.9
			C622.2,478.7,622.9,481.6,624.8,481.1L624.8,481.1L624.8,481.1z"/>
		<path d="M629.7,477c-0.9,2.5-1.3,5-1.2,7.6c0,0.8,0.7,1.5,1.5,1.5c3.3,0,6.6-0.4,9.9-1c1.9-0.4,1.1-3.2-0.8-2.9
			c-3,0.6-6,0.8-9.1,0.9l1.5,1.5c-0.1-2.4,0.2-4.6,1-6.8C633.3,476,630.4,475.2,629.7,477L629.7,477L629.7,477z"/>
		<path d="M555.3,397.6c13-5.1,26.6-7.9,40.5-8.5c1.9-0.1,1.9-3.1,0-3c-14.2,0.5-28.1,3.4-41.3,8.6
			C552.7,395.4,553.5,398.3,555.3,397.6L555.3,397.6z"/>
		<path d="M556,394l-0.2-0.2c0.1,0.6,0.2,1.2,0.2,1.8c1.2-2.8,7.4-3.4,10-3.9c3.4-0.7,6.8-1.3,10.2-1.8c7.6-1.2,15.3-2,22.9-2.5
			c1.9-0.1,1.9-3.1,0-3c-8.9,0.6-17.7,1.6-26.5,3.1c-4.6,0.8-17,1.5-19.2,6.6c-0.3,0.6-0.3,1.3,0.2,1.8l0.2,0.2
			C555.2,397.4,557.4,395.3,556,394L556,394L556,394z"/>
		<path class="st12" d="M641.6,399.5c-0.4,10.9-3.8,16.6-7,19.7c-1.7,1.7-2.4,1.7-8.9,7c-9.2,7.4-9.8,9-10.1,10.1
			c-1.1,5.3,4.6,7.7,5,13.9c0.5,7.1-6.4,13.1-10.1,16.2c-18.5,15.9-56.1,12.6-62.3,12c1.4,8.4,2.8,16.8,4.3,25.1
			c1.8,0.5,4.3,0.9,5.4-0.4c1.1-1.2,0.4-3.2-0.4-7.3c-1.1-5.8-1.6-8.8-0.8-10.1c2.2-3.4,11.6-0.2,19.7,1.2c7.7,1.3,19,1.6,33.7-3.1
			c0.3,3.4,0.5,6.7,0.8,10.1H621c1.2-4.4,2.3-8.8,3.5-13.2c2.3-1.3,4.6-2.6,7-3.9c-0.5,2.6-1,5.2-1.5,7.7c3.6-0.1,7.2-0.3,10.8-0.4
			c0.1-2.9,0.9-8.9,5-14.7c1.5-2.1,4.2-5.8,8.9-7.7c3-1.2,3.9-0.5,7-1.9c1.4-0.6,5.2-2.7,7.7-7c2.4-4.1,3.8-10.7,0.8-15.1
			c-1.6-2.3-2.6-1.4-5.4-4.3c-3.1-3.2-2.4-4.9-6.2-12c-2.6-4.9-3.5-5.1-3.5-7c0.2-4.8,6.3-6.3,5.8-9.7c-0.5-4.1-9.9-5.7-10.4-5.8
			C646.8,398.5,643.7,399,641.6,399.5L641.6,399.5z"/>
		<path class="st4" d="M638.9,422.7c-0.4,2.2-1.4,5.9-4.3,9.3c-1.6,1.9-3.6,4.2-7,4.6c-3.7,0.5-6.6-1.7-7.3-2.3
			C626.6,430.4,632.7,426.6,638.9,422.7L638.9,422.7z"/>
	</g>
	<g id="hand_left">
		<path class="st11" d="M621.9,476.6c-2.1,1.2-3.7,3.8-3.5,6c0.5,4.7,9.6,6.9,9.3,7.9c-0.3,0.9-6.8-1.9-13.7,0.6
			c-1.1,0.4-4.7,1.7-5,4c-0.2,1.8,1.8,2.3,2.3,5.2c0.4,2-0.5,2.2-0.6,5.8c-0.1,2.4-0.1,3.9,0.8,5.4c1.2,1.9,2.6,1.5,3.7,3.3
			c1.3,2.1-0.4,3.4,0.6,6c1,2.7,3.9,4.4,6.2,5c2.6,0.7,4-0.2,4.8,0.8c1.2,1.5-1.6,4.1-0.6,6.6c0.9,2.2,4.2,2.8,5.4,2.9
			c8.3,0.6,15.6-18.4,16-19.5c3.1,0,6.8-0.3,10.8-1.3c9.3-2.4,15.2-7.7,22.4-14.1c3.7-3.3,8.3-7.5,13.1-14.1c6.5-9,9.4-17,12-24.1
			c2.2-6.2,5.4-15.6,6.4-28.2c0.9-13-1.1-22.7-2.9-31.2c-4.5-21-12.6-35.2-14.5-38.4c-0.3-0.5-6.3-8.3-18.3-23.9
			c-6.1-7.9-11.6-14.8-18.1-14.5c-0.7,0-2,0.1-3.5,1c-4.7,2.7-5.1,10.5-4.8,17.7c1.1,24.8,9.8,42.8,9.8,42.8
			c7.1,14.6,12.8,18.4,15.4,32c1.4,7.1,1.4,13.7,1.3,15c0,5.1-0.2,11.9-2.9,20.1c-1.5,4.3-4.8,14-14.1,21.8
			c-5.6,4.7-9.6,8.1-14.7,7.5c-7.1-0.8-13-8.8-19.9-8.9C624.3,475.8,623.1,475.9,621.9,476.6L621.9,476.6z"/>
		<path d="M654.7,326.9c25.2,15.6,44,40.7,51.7,69.4c8.6,32.1,2.8,65.3-16.4,92.4c-9.5,13.4-23.4,26.4-40.9,25.7
			c-1.9-0.1-1.9,2.9,0,3c14.9,0.6,27.4-8.1,36.9-18.8c10.8-12.2,19.2-27.3,23.6-43c9-32.3,2-68.2-16.6-95.9
			c-9.6-14.2-22.1-26.3-36.7-35.3C654.5,323.3,653,325.9,654.7,326.9L654.7,326.9L654.7,326.9z"/>
		<path d="M672.9,454.1c-5.4,12.9-13.9,26.4-28.8,28.9c-1.9,0.3-1.1,3.2,0.8,2.9c15.9-2.7,25-17.2,30.8-31
			C676.5,453.2,673.6,452.4,672.9,454.1L672.9,454.1z"/>
		<path d="M644.7,482.8c-6.8-1.2-18.6-13.5-25.5-6.7c-2.5,2.5-2.2,6.7-0.7,9.6c2.2,4.3,7,5.8,11.3,6.9c1.9,0.5,2.7-2.4,0.8-2.9
			c-3.8-0.9-8.4-2.1-9.8-6.3c-0.8-1.5-0.5-2.9,0.8-4c0.6-2.1,2-2.8,4.2-1.9c1.6,0.3,3.1,1,4.5,1.7c4.6,2.3,8.4,5.6,13.6,6.5
			C645.8,486.1,646.6,483.2,644.7,482.8L644.7,482.8L644.7,482.8z"/>
		<path d="M647.5,515c-3.3,4.8-6.5,9.7-9.8,14.5c-0.8,1.1-1.5,2.2-2.5,3.2c-0.9,1.1-2.1,1.9-3.5,2.4c-1.4-2.1-2.7-4.2-4.1-6.3
			c0.6-1.8,4.8-4.2,6.2-5.5c1.5-1.3-0.7-3.4-2.1-2.1c-2.9,2.6-8.2,5.5-8.4,9.9c-0.1,3.4,2.5,6.6,5.8,7.1c4.1,0.6,7.4-2.2,9.7-5.2
			c4.1-5.2,7.5-11,11.3-16.5C651.2,514.9,648.6,513.4,647.5,515L647.5,515z"/>
		<path d="M629.9,489.6c-5.8,1.7-11.7,0.3-17.5,1.3c-3,0.5-5.6,2.1-5.3,5.5c1,9.6,14.2,8.1,20.5,6.7c1.9-0.4,1.1-3.3-0.8-2.9
			c-2.9,0.7-5.9,1.3-8.9,1.1c-3.8-0.3-12-5.1-4.1-7.6c2.7-0.8,6.3-0.1,9-0.2c2.7,0,5.3-0.3,7.9-1.1
			C632.6,491.9,631.8,489,629.9,489.6L629.9,489.6L629.9,489.6z"/>
		<path d="M612.2,500.7c-4.4,3.1-4.8,10-0.6,13.5c5,4.1,12.6,1.5,17.7-1c1.7-0.9,0.2-3.5-1.5-2.6c-3.3,1.7-7.7,3.4-11.5,2.5
			c-4.3-0.9-6.6-7-2.5-9.8C615.3,502.2,613.8,499.6,612.2,500.7L612.2,500.7z"/>
		<path d="M614,515c-1.3,3.9,0.4,8.5,3.8,10.9c4.3,3,9.7,1.5,13.6-1.5c1.5-1.2,0-3.8-1.5-2.6c-2.8,2.1-6.6,3.9-9.9,1.9
			c-2.7-1.6-4-5-3-7.9C617.5,514,614.6,513.2,614,515L614,515z"/>
		<path d="M656.3,322.8c-12.8,18.2-8.4,41.5-0.2,60.5c10.3,23.9,27.7,47.9,22.4,75.3c-0.4,1.9,2.5,2.7,2.9,0.8
			c4.6-23.9-7.3-45.7-17.5-66.4c-10.3-20.9-20-47.4-5-68.7C660,322.7,657.4,321.2,656.3,322.8L656.3,322.8L656.3,322.8z"/>
		<path d="M675.7,425.7c-0.5,10.7-1.8,21.3-3.9,31.8c-0.4,1.9,2.5,2.7,2.9,0.8c2.1-10.8,3.5-21.6,4-32.6
			C678.8,423.8,675.8,423.8,675.7,425.7L675.7,425.7L675.7,425.7z"/>
		<path class="st12" d="M673.8,339.8c5,9.7,11,23.8,14.8,41.6c5,23.6,3.6,42.5,2.7,51c-2.1,19.6-3.9,36.5-16.6,53.2
			c-5.3,7.1-16.1,21.3-34,26c-12.2,3.1-24.5,1-26,5.8c-0.7,2.5,1.6,5.7,4,7.2c3.2,1.9,7.5,1.6,11.2-0.9c-3.6,2.5-5.3,6-4.5,8.5
			c0.7,2.2,3.2,3.4,4.9,3.6c8.2,1.1,16.4-17.8,17-19.2c3.2,0.1,8-0.1,13.4-1.8c11.2-3.4,18-10.9,25.5-19.2
			c3.1-3.4,8.7-9.8,13.9-19.2c13.3-24.3,12.2-48.7,11.6-57.7c-1.7-29.6-14.2-50-17.5-55C687.4,352.5,679.6,344.8,673.8,339.8z"/>
		<path class="st13" d="M712.3,425.2c-3.6,11.2-9.2,24.7-17.9,38.9c-15.1,24.7-33.2,40.9-46.1,50.6c3.3,0.2,8.3,0.1,13.9-1.3
			c19-5,29.1-21.6,33.1-28.2c5.2-8.6,7.2-15.8,10.7-28.2C709.7,444,711.4,432.9,712.3,425.2L712.3,425.2z"/>
	</g>
	<g id="hand_right">
		<path class="st11" d="M553.8,330.7c-1.6-1.9-14.7,6.6-23.6,13.3c-10.8,8.1-20.1,15.1-29,27.8c-11.8,16.8-15.4,33.1-16.6,39.8
			c-0.9,5.2-3.7,23.4,2.5,45.6c5.2,18.7,14,30,24.9,44c7,9.1,12.4,14.1,19.9,17.4c6.9,3.1,13.2,3.7,17.4,3.7
			c2.2,3.2,4.7,6.8,7.5,10.8c2.4,3.4,3.8,5.3,6.2,7.5c2.3,2.1,5.9,5.2,8.7,4.1c1.5-0.5,2.3-2.1,3.7-4.6c1.4-2.6,1.1-3.1,2.1-4.1
			c2.1-2.2,4.3-0.8,7.1-2.5c2.8-1.8,1.5-4.2,5-9.1c2.7-3.8,4.2-3.5,5-6.2c0.8-3-1-4-0.4-7.9s2.8-5.2,2.1-6.6
			c-0.8-1.5-3.9-0.9-8.3-0.8c-8,0.1-14.9-1.9-14.9-2.9c0-1.1,7.1-0.1,10.8-4.6c2.1-2.6,3-7,1.2-9.1c-2.1-2.6-7.6-1.3-14.5,0.4
			c-9.3,2.3-9.8,4.2-13.7,4.6c-12,1.1-22.8-16.1-26.5-22c-2-3.1-8.2-13.6-10.4-28.6c-2.2-15.1,0.7-27.6,2.9-36.9
			c0.6-2.7,0.4-1.4,4.6-15.8c7.4-25.6,6.9-25.5,8.7-29.9C543.6,340.3,555.4,332.5,553.8,330.7L553.8,330.7z"/>
		<path d="M551.1,329.7c-30.2,13.3-55.1,38.6-64.9,70.5c-10.7,34.5-2,70.4,20.4,98.3c10.8,13.4,25.3,24.5,43,25.5
			c1.9,0.1,1.9-2.9,0-3c-15.8-0.9-28.9-10.6-38.9-22.3c-10.8-12.7-19.5-28.3-23.4-44.5c-8-32.5,1.9-67.3,24-92.1
			c11.5-12.9,25.7-22.9,41.5-29.9C554.4,331.5,552.9,329,551.1,329.7L551.1,329.7L551.1,329.7z"/>
		<path d="M522.6,458.7c6.2,15.4,16.2,30.1,33.2,34.3c1.9,0.5,2.7-2.4,0.8-2.9c-15.9-3.9-25.3-17.8-31.1-32.2
			C524.8,456.2,521.9,456.9,522.6,458.7L522.6,458.7L522.6,458.7z"/>
		<path d="M556.4,492.8c6-0.4,10.8-3.4,16.4-5.2c3.7-1.2,10-2.5,10.7,2.6c0.9,6.2-7,7.5-11.5,8c-1.9,0.2-1.9,3.2,0,3
			c4.5-0.5,9.5-1.2,12.6-4.8c2.4-2.9,3.2-7.4,0.6-10.4c-6.9-8-21.1,3.3-28.8,3.8C554.5,490,554.5,493,556.4,492.8L556.4,492.8
			L556.4,492.8z"/>
		<path d="M548.5,523.2c3.9,5.8,7.5,12,11.8,17.5c2.6,3.4,6.1,6.6,10.7,6.3c3.4-0.3,6.6-2.9,6.6-6.5c0.1-4.7-5.9-8.3-8.9-11
			c-1.4-1.3-3.6,0.8-2.1,2.1c1.7,1.5,5.9,4.2,6.7,6.2c0.1,1.7,0.1,3.3,0.2,5c-3.1,1.5-5.7,1.3-7.7-0.6c-1.6-1.2-2.7-2.6-3.9-4.3
			c-3.8-5.3-7.2-10.8-10.8-16.2C550,520,547.4,521.5,548.5,523.2L548.5,523.2L548.5,523.2z"/>
		<path d="M571.5,501c5.7,2.1,11.7,1.8,17.6,2.8c1,0.1,2,0.3,3,0.6c0.5,1.5,1,3,1.4,4.5c-0.4,1.8-6,2.3-7.2,2.3
			c-3.8,0.1-7.5-1.1-11.1-2.1c-1.9-0.5-2.6,2.3-0.8,2.9c5.8,1.7,22.7,5.5,23.3-5.1c0.2-3.7-3.4-5.1-6.4-5.7c-6.3-1.3-12.9-0.8-19-3
			C570.5,497.5,569.7,500.4,571.5,501L571.5,501L571.5,501z"/>
		<path d="M590.2,513.8c2.1,1.6,2.8,4.5,1.5,6.7s-3.8,2.8-6.2,2.8c-4.1-0.1-8.2-2-11.8-3.9c-1.7-0.9-3.2,1.7-1.5,2.6
			c5.5,3,14.2,6.8,20.1,2.5c4.6-3.4,3.8-10.1-0.5-13.3C590.1,510,588.6,512.6,590.2,513.8L590.2,513.8L590.2,513.8z"/>
		<path d="M586,526.1c1,3.4-1.3,6.9-4.7,7.8c-3.7,1-7.4-0.9-10.2-3.1c-1.5-1.2-3.6,0.9-2.1,2.1c4,3.2,9.3,5.5,14.4,3.4
			c4.3-1.8,7-6.5,5.6-11C588.4,523.4,585.5,524.2,586,526.1L586,526.1L586,526.1z"/>
		<path class="st13" d="M534.2,341.1c-5.8,8.3-13.1,20.3-19.2,35.8c-9.9,25.2-11.3,46.4-11.6,54.1c-0.9,22.1-1.4,35,6.3,48.8
			c9.8,17.6,27.3,26.3,49.2,37.1c11.2,5.5,20.8,9.1,27.3,11.2c0,0.6,0,4.9-3.1,7.2c-3.4,2.4-9.3,1.5-13-3.1c4.8,3.1,7,7.3,5.8,9.8
			c-1,2.3-4.9,3.5-8.1,2.7c-6.2-1.7-5.6-10.4-14.8-18.8c-2.1-1.9-4-3.2-5.4-4c-5.9-0.6-16-2.6-26-9.4c-1.8-1.2-8.6-6.1-17.9-20.1
			c-5.9-8.9-13.2-20-17.5-36.7c-1.4-5.4-8.2-34.2,4.9-65.3c1.3-3.2,4.7-10.6,10.7-19.2C513,355.4,525.9,346.1,534.2,341.1
			L534.2,341.1z"/>
	</g>
	<g id="head">
		<path class="st11" d="M540.6,179.6c-11,7.8-14.5,18.9-21.3,40.8c-8.6,27.6-14.8,47.5-4.2,63c10.5,15.2,33.6,20.6,57.5,16.7
			c1.5,0.6,3.6,1.7,5.1,3.7c2,2.7,1.7,5.4,2.3,9.7c0.8,5.7,1.4,10.5,4.2,12.5c4.6,3.4,14.3-1.3,19.9-5.6c8.7-6.6,12.4-15.4,13.9-19
			c15.5-38.3,23.2-57.4,19-75.5c-1.2-5.1-5.1-21-19-34.3C597.7,172.4,562.2,164.3,540.6,179.6L540.6,179.6z"/>
		<path class="st1" d="M525.4,202.5c-12.2,25.6-7.8,63.4,13.2,83.6c18,17.2,48.4,15.6,65-2.6c1.3-1.4-0.8-3.6-2.1-2.1
			c-16,17.5-45.2,18.6-61.9,1.5c-19-19.4-23.1-54.8-11.7-78.8C528.8,202.3,526.2,200.8,525.4,202.5L525.4,202.5L525.4,202.5z"/>
		<path class="st1" d="M576.1,296.4c-0.1,10.4,2.1,20.4,6.4,29.9c0.8,1.8,3.4,0.2,2.6-1.5c-4.1-9-6.1-18.5-6-28.4
			C579.1,294.5,576.1,294.5,576.1,296.4L576.1,296.4z"/>
		<path class="st1" d="M582.4,327c10,5.8,22.7-3.1,29.9-9.8c1.4-1.3-0.7-3.4-2.1-2.1c-6,5.6-17.8,14.3-26.2,9.4
			C582.2,323.5,580.7,326.1,582.4,327L582.4,327L582.4,327z"/>
		<path class="st1" d="M541.8,254.3c15.4,9.8,36.2-3.6,43.8-17.4c0.9-1.7-1.7-3.2-2.6-1.5c-6.8,12.4-25.7,25.2-39.7,16.3
			C541.7,250.7,540.2,253.3,541.8,254.3L541.8,254.3L541.8,254.3z"/>
		<path class="st1" d="M579.4,234.3c2.6,1.3,4.6,3.4,5.4,6.2c0.6,1.8,3.5,1.1,2.9-0.8c-1.1-3.5-3.5-6.4-6.8-8
			C579.2,230.9,577.7,233.5,579.4,234.3L579.4,234.3z"/>
		<path class="st1" d="M551.5,198.6c-3.7,10.4-8.2,20.5-13.6,30.1c-0.9,1.7,1.6,3.2,2.6,1.5c5.5-9.9,10.1-20.2,13.9-30.9
			C555,197.6,552.1,196.8,551.5,198.6L551.5,198.6z"/>
		<path class="st1" d="M538.3,231.4c3.1,4.3,8,6.8,13.3,6.4c1.9-0.1,1.9-3.1,0-3c-4.2,0.3-8.2-1.5-10.7-4.9
			C539.8,228.3,537.2,229.8,538.3,231.4L538.3,231.4L538.3,231.4z"/>
		<path class="st1" d="M538,215.7c-0.3-2.3,0-4.6,0.9-6.7H536c0.8,2.7,0.4,5.4-1.1,7.8c0.9,0.1,1.8,0.2,2.7,0.4
			c-0.4-1.9-0.3-3.8,0.3-5.7c0.6-1.8-2.3-2.6-2.9-0.8c-0.8,2.4-0.9,4.8-0.3,7.3c0.3,1.3,2.1,1.4,2.7,0.4c1.9-3,2.4-6.7,1.4-10.1
			c-0.4-1.5-2.4-1.3-2.9,0c-1.1,2.7-1.3,5.5-0.9,8.3C535.4,218.4,538.2,217.6,538,215.7L538,215.7L538,215.7z"/>
		<path class="st1" d="M576.3,209.4c-1-2.5-0.6-5.1,1.3-6.9c-0.8-0.2-1.7-0.4-2.5-0.7c0.7,2.9,0.3,5.7-1.2,8.3
			c0.9,0.1,1.8,0.2,2.7,0.4c-0.4-1.9-0.2-3.6,0.4-5.4c0.6-1.8-2.3-2.6-2.9-0.8c-0.8,2.3-0.9,4.6-0.4,7c0.3,1.3,2.1,1.4,2.7,0.4
			c1.9-3.3,2.4-7,1.5-10.6c-0.3-1.1-1.7-1.4-2.5-0.7c-2.6,2.6-3.5,6.5-2.1,9.9C574.2,212,577.1,211.2,576.3,209.4L576.3,209.4z"/>
		<path class="st1" d="M532.9,199.8c1.7-3.7,6.4-5,9.6-2.6c1.6,1.1,3.1-1.5,1.5-2.6c-4.5-3.3-11.5-1.4-13.7,3.7
			C529.5,200.1,532.1,201.6,532.9,199.8L532.9,199.8z"/>
		<path class="st1" d="M525.9,223.9c-0.2,0.2-0.4,0.4-0.6,0.6c-0.6,0.6-0.6,1.5,0,2.1s1.5,0.6,2.1,0c0.2-0.2,0.4-0.4,0.6-0.6
			c0.6-0.6,0.6-1.5,0-2.1C527.4,223.3,526.5,223.3,525.9,223.9L525.9,223.9z"/>
		<path class="st1" d="M534.7,223.5C534.7,223.5,534.7,223.4,534.7,223.5c0,0.2,0.1,0.4,0.2,0.7v-0.1c-0.1,0.3-0.1,0.5-0.2,0.8
			c-0.7,0.8-1.4,0.8-2.1,0c-0.1-0.3-0.1-0.5-0.2-0.8v0.1c0.1-0.3,0.1-0.5,0.2-0.8v0.1c-0.3,0.7-0.2,1.6,0.5,2.1
			c0.6,0.4,1.7,0.2,2.1-0.5c0.3-0.7,0.3-1.4-0.2-2c-0.3-0.3-0.8-0.5-1.3-0.5s-1,0.2-1.3,0.5c-0.6,0.6-0.5,1.3-0.2,2s1.4,0.9,2.1,0.5
			C534.9,225.1,535,224.2,534.7,223.5L534.7,223.5z"/>
		<path class="st1" d="M529.5,234h0.4c1.9,0,1.9-3,0-3h-0.4C527.6,231,527.6,234,529.5,234h0.4c1.9,0,1.9-3,0-3h-0.4
			C527.6,231,527.6,234,529.5,234L529.5,234z"/>
		<path class="st1" d="M572.7,219.2c0-0.2,0-0.4-0.1-0.6c-0.1-0.8-0.6-1.5-1.5-1.5c-0.7,0-1.6,0.7-1.5,1.5c0,0.2,0,0.4,0.1,0.6
			c0.1,0.8,0.6,1.5,1.5,1.5C571.9,220.7,572.8,220.1,572.7,219.2L572.7,219.2z"/>
		<path class="st1" d="M579.5,217.6h0.6c0.8,0,1.5-0.7,1.5-1.5s-0.7-1.5-1.5-1.5h-0.6c-0.8,0-1.5,0.7-1.5,1.5
			S578.6,217.6,579.5,217.6L579.5,217.6z"/>
		<path class="st1" d="M576.1,223v0.6c0,0.8,0.7,1.5,1.5,1.5s1.5-0.7,1.5-1.5V223c0-0.8-0.7-1.5-1.5-1.5
			C576.8,221.6,576.1,222.2,576.1,223L576.1,223z"/>
		<path class="st1" d="M569.9,193.5c4.6-2.2,10.1-1.6,14.1,1.7c1.5,1.2,3.6-0.9,2.1-2.1c-5.1-4.2-11.8-5-17.7-2.1
			C566.6,191.8,568.2,194.4,569.9,193.5L569.9,193.5z"/>
		<path class="st1" d="M614.3,209.2c1.2-1.2,2.4-2.3,3.7-3.5l2.4,0.3c1.8,0.4,3.2,1.3,4.5,2.4c2.9,2.5,4.4,6.1,4.7,9.9
			c0.6,6.3-1.9,14.7-9.5,14.5c-1.9,0-1.9,3,0,3c12.6,0.3,15.1-16.4,10.3-25.2c-2.4-4.5-7.2-8-12.5-7.9c-4.1,0.1-8.3,2.8-6.6,7.3
			C612.1,211.7,615,211,614.3,209.2L614.3,209.2z"/>
		<path class="st14" d="M544.6,164.4c-2,0.5-9.1,2.3-17.5,9C509,188,503.7,211,502,218.6c-3.3,15,0.2,15.5-3.6,27.7
			c-5.2,16.8-12.6,18.4-18.3,33.1c-1.9,4.8-10.2,26.2-0.4,43.9c10,18,33.7,23.2,50.1,21.5c18.9-1.9,40.5-14.3,45.6-33.6
			c1.4-5.2,1.3-10,0.9-13.5c-4.7,0.3-13.2,0.3-22.8-3.5c-2.5-1-11.9-5-20.1-14.8c-7-8.3-9.5-16.4-11.3-22.3
			c-1.7-5.8-5.5-19-1.7-35.5c3.5-15,11.3-24.5,12.9-26.4c9.7-11.4,21.1-16.1,26.5-17.9c4.8,6.2,9.5,10.8,13,13.9
			c7.6,6.7,15.7,13.8,27.7,16.1c4.5,0.9,8.2,0.9,10.6,0.7c0.6-0.9,2.4-3.2,5.6-4.1c5.3-1.5,9.8,2.5,10.6,3.2
			c3.1,2.7,3.9,6.1,4.5,8.2c0.4,1.5,1.6,6.6-0.8,12c-0.6,1.3-1.5,3.2-3.4,4.8c-3.6,3.1-8.1,2.9-9.4,2.8c-3.7,4-8.8,10.6-12.7,19.7
			c-6.4,15-5.6,28.2-5.4,31.8c0.7,9,1.9,25.6,15.2,36.7c16.7,14,39,7.9,41.6,7.2c25.8-7.4,34.2-33.7,34.9-36.2
			c7.1-23.7-5.2-44.5-11.2-54.6c-8.3-14.1-12.4-12.5-30.9-33.1c-27.1-30.2-27.3-43.6-43.4-49.7c-8.6-3.2-23-4.9-46.1,7.2
			C556.8,163.4,551.1,162.9,544.6,164.4L544.6,164.4z"/>
		<path class="st1" d="M578.1,299.5c5.9-0.7,12.1-4.8,16.8-8.3c1.5-1.1,0-3.7-1.5-2.6c-2.2,1.7-4.6,3.1-7.1,4.4
			c-2.6,1.4-5.3,3.1-8.3,3.5C576.2,296.7,576.2,299.7,578.1,299.5L578.1,299.5L578.1,299.5z"/>
		<path class="st1" d="M579,300.8c3.8-0.6,7.2-2.8,10.5-4.7c3.2-1.9,6.1-4,8.7-6.7c1.3-1.4-0.8-3.5-2.1-2.1
			c-4.3,4.6-11.6,9.6-17.9,10.7C576.3,298.3,577.1,301.2,579,300.8L579,300.8z"/>
		<path class="st15" d="M641,198.3c5.9,9.9,13.8,24.9,20.1,44.5c7.7,23.9,12.3,37.8,4.7,48.7c-7.5,10.8-24.6,15.1-38.9,10.3
			c-14.3-4.8-24.4-18.1-25.3-33.7c-1.3,5.7-2.7,15.4-0.5,27.1c1.5,7.7,3.4,17.5,11.7,25.7c9.9,9.8,22.5,10.8,27.1,11.2
			c4.7,0.4,17.1,0.7,29.5-7c12.3-7.6,17.2-18.5,19.2-22.9c5.5-12.4,4.7-23.4,4.2-29c-1.3-15.8-8.1-26.8-11.2-31.8
			c-1.3-2.1-4.3-6.7-18.7-21.5C654,210.6,646.4,203.2,641,198.3L641,198.3z"/>
		<path class="st16" d="M481.9,276.4c-1.2,4.1-3,12.9,0.5,22.5c5.7,15.7,23.5,27,41.7,24.3c14.9-2.2,27.4-13.4,31.8-28.6
			c7,0.9,14,1.9,21.1,2.8c0.2,3.4,0,8.6-1.9,14.5c-3.4,10.8-10.2,17.1-13.1,19.7c-13.3,11.9-29.3,12.8-35.6,13.1
			c-8.3,0.4-21.8,1.2-34.2-8c-10.4-7.6-14.3-17.9-15.4-21.5C470.4,295.8,480.3,279.1,481.9,276.4z"/>
		<path class="st5" d="M606.4,234.8c-3.8,13.6-8.9,31.9-20.6,42.6c-5,4.6-16.9,12.9-41.7,11.2c3,2.1,9.7,6.1,19.2,7
			s16.8-1.8,20.1-3.3c3.7,11.1,7.5,22.2,11.2,33.2c5.3-3,10.6-5.9,15.9-8.9c-3.6-5.6-10.4-17.9-10.8-34.6
			c-0.6-27.4,16.5-45.5,20.1-49.1c1.4-0.2,6.3-1.3,9.4-5.6c4.1-5.8,2.4-14.2-2.3-18.7c-0.9-0.9-4.9-4.7-8.9-3.7
			C611.6,206.3,610.8,218.8,606.4,234.8L606.4,234.8z"/>
	</g>
</g>
<g id="Layer_2">
</g>
<rect x="405.8" y="133.3" transform="matrix(0.9204 -0.391 0.391 0.9204 -24.7651 179.7727)" class="st17" width="46.4" height="34.8"/>
<text transform="matrix(0.9205 -0.3911 0.391 0.9204 410.152 165.5598)" class="st18 st19">st </text>
<rect x="333.1" y="200.8" transform="matrix(0.9203 -0.3913 0.3913 0.9203 -55.5191 150.5097)" class="st17" width="16.9" height="21.3"/>
<text transform="matrix(0.5973 -0.2539 0.3913 0.9202 335.6509 219.1586)" class="st18 st20">st </text>
<rect x="415.1" y="280" transform="matrix(0.9203 -0.3913 0.3913 0.9203 -82.2627 191.6329)" class="st17" width="28" height="35.3"/>
<text transform="matrix(0.5973 -0.2539 0.3913 0.9203 419.3041 310.3857)" class="st18 st21">st </text>
</svg>
