<?xml version="1.0" encoding="utf-8"?>
<!-- Generator: Adobe Illustrator 24.2.3, SVG Export Plug-In . SVG Version: 6.00 Build 0)  -->
<svg version="1.1" id="Layer_1" xmlns="http://www.w3.org/2000/svg" xmlns:xlink="http://www.w3.org/1999/xlink" x="0px" y="0px"
	 viewBox="0 0 108.2 33.5" style="enable-background:new 0 0 108.2 33.5;" xml:space="preserve">
<style type="text/css">
	.st0{fill:#FD8845;}
	.st1{fill:#E72A59;}
	.st2{fill:#CF1F71;}
	.st3{fill:#B316BC;}
	.st4{fill:#FFFFFF;}
</style>
<path id="Path_42" class="st0" d="M2.2,0C1,0,0,1,0,2.2s1,2.2,2.2,2.2s2.2-1,2.2-2.2c0,0,0,0,0,0v0C4.3,1,3.4,0,2.2,0z"/>
<path id="Path_43" class="st1" d="M2.2,9.7C1,9.7,0,10.7,0,11.9c0,0,0,0,0,0c0,1.2,1,2.2,2.2,2.1c1.2,0,2.1-1,2.1-2.1l0,0
	C4.3,10.7,3.4,9.7,2.2,9.7z"/>
<path id="Path_44" class="st2" d="M2.2,19.4c-1.2,0-2.2,1-2.2,2.2s1,2.2,2.2,2.2s2.2-1,2.2-2.2l0,0l0,0C4.4,20.4,3.4,19.5,2.2,19.4z
	"/>
<path id="Path_45" class="st3" d="M2.2,29.2c-1.2,0-2.2,1-2.2,2.2s1,2.2,2.2,2.2c1.2,0,2.2-1,2.2-2.2C4.4,30.2,3.4,29.2,2.2,29.2
	C2.2,29.2,2.2,29.2,2.2,29.2z"/>
<path id="Path_46" class="st4" d="M29.8,5.3c1.5,0.6,2.9,1.5,4.1,2.7l-2.3,2.9c-0.9-0.9-1.9-1.7-3-2.2c-1.1-0.5-2.3-0.8-3.5-0.8
	c-4.6-0.1-8.4,3.6-8.4,8.2c0,1.5,0.4,3,1.1,4.3l0,0c0.7,1.3,1.8,2.3,3,3c1.3,0.7,2.8,1.1,4.3,1.1c1.2,0,2.4-0.3,3.5-0.7
	c1.1-0.5,2.2-1.2,3.1-2.1l2.3,2.6c-1.2,1.2-2.7,2.2-4.2,2.8c-1.5,0.7-3.2,1-4.9,1c-2.2,0-4.3-0.5-6.2-1.6c-1.8-1-3.4-2.5-4.4-4.3
	c-3.3-5.6-1.5-12.8,4.1-16.1c0.1-0.1,0.3-0.2,0.4-0.2C22.1,4.1,26.2,3.9,29.8,5.3z"/>
<path id="Path_47" class="st4" d="M37.9,28V3h3.9v25H37.9z"/>
<path id="Path_48" class="st4" d="M63.9,28h-3.9v-3.5c-1.2,2.4-3.3,3.6-6.4,3.6c-1.8,0.1-3.5-0.6-4.8-1.9c-1.2-1.4-1.9-3.2-1.8-5
	V10.1H51v10.1c-0.1,1.2,0.3,2.3,1.1,3.2c0.8,0.8,1.9,1.2,3.1,1.2c1.4,0,2.7-0.6,3.6-1.6c0.9-1.1,1.4-2.5,1.3-4v-8.8h3.9L63.9,28z"/>
<path id="Path_49" class="st4" d="M86,28h-3.9V25c-0.6,1-1.5,1.9-2.6,2.4c-1.2,0.6-2.4,0.9-3.7,0.8c-1.6,0-3.1-0.4-4.5-1.2
	c-1.3-0.8-2.3-1.9-3-3.2c-0.7-1.5-1.1-3.1-1.1-4.8c0-1.6,0.3-3.3,1.1-4.7c0.7-1.3,1.7-2.4,3-3.2c1.3-0.8,2.9-1.2,4.4-1.1
	c1.3,0,2.6,0.3,3.7,0.8c1.1,0.6,2,1.4,2.6,2.4V3H86V28z M80.6,23.3c1-1.1,1.6-2.7,1.5-4.2c0.1-1.6-0.5-3.1-1.5-4.2
	c-2.2-2.2-5.7-2.2-7.9,0c0,0,0,0,0,0c-1.1,1.2-1.6,2.7-1.6,4.2c0,1.6,0.5,3.1,1.6,4.2c1,1.1,2.5,1.7,3.9,1.6
	C78.2,25,79.6,24.4,80.6,23.3L80.6,23.3z"/>
<path id="Path_50" class="st4" d="M103.7,11.1c1.4,0.7,2.5,1.8,3.3,3.2c1.6,3,1.6,6.5,0,9.5c-0.8,1.4-1.9,2.5-3.3,3.2
	c-1.5,0.8-3.2,1.2-4.8,1.1c-1.7,0-3.4-0.4-4.9-1.1c-1.4-0.7-2.5-1.8-3.3-3.2c-1.6-3-1.6-6.5,0-9.5c0.8-1.4,1.9-2.5,3.3-3.2
	c1.5-0.8,3.2-1.2,4.9-1.2C100.6,9.9,102.3,10.3,103.7,11.1z M95,14.9c-1,1.1-1.6,2.6-1.5,4.2c-0.1,1.6,0.5,3.1,1.5,4.2
	c1,1.1,2.5,1.7,3.9,1.6c1.5,0.1,2.9-0.5,3.9-1.6c1-1.2,1.6-2.7,1.5-4.2c0.1-1.5-0.5-3-1.5-4.2C100.6,12.8,97.1,12.8,95,14.9L95,14.9
	z"/>
</svg>
